<svg width="1536" height="5183" viewBox="0 0 1536 5183" fill="none" xmlns="http://www.w3.org/2000/svg">
<g clip-path="url(#clip0_135_468)">
<rect width="1536" height="5183" fill="white"/>
<g clip-path="url(#clip1_135_468)">
<path d="M-456.399 315.014C-308.347 418.657 -180.215 548.154 -78.1626 697.282C161.93 1051.5 104.933 1313.05 254.44 1366.36C485.467 1448.72 685.948 846.863 1189.79 788.706C1559.33 746.004 1910.75 1016.86 1992.08 1079.61C2309.41 1324.15 2334.8 1569.57 2574.09 1594.77C2749.11 1613.39 2810.89 1490.12 3089.42 1457.66C3283.31 1435.07 3448.59 1472 3559.17 1507.31" stroke="#F4F4F4" stroke-width="2.8539" stroke-miterlimit="10"/>
<path d="M-458.509 343.938C-310.444 447.613 -182.294 577.128 -80.2103 726.268C159.882 1080.54 102.886 1342.03 252.33 1395.35C483.42 1477.71 683.9 875.849 1187.68 817.692C1557.28 775.053 1908.7 1045.91 1990.03 1108.6C2307.36 1353.14 2332.7 1598.55 2572.04 1623.75C2747.07 1642.37 2808.78 1519.11 3087.37 1486.65C3281.33 1464.05 3446.54 1500.98 3557.12 1536.3" stroke="#F4F4F4" stroke-width="2.8539" stroke-miterlimit="10"/>
<path d="M-460.619 372.862C-312.538 476.518 -184.385 606.037 -82.3199 755.192C157.772 1109.47 100.776 1370.96 250.283 1424.27C481.124 1506.63 681.853 904.773 1185.63 846.616C1555.18 803.977 1906.59 1074.84 1987.92 1137.52C2305.25 1382.13 2330.65 1627.48 2569.93 1652.68C2744.96 1671.3 2806.73 1547.97 3085.26 1515.51C3279.22 1492.92 3444.44 1529.85 3555.01 1565.16" stroke="#F4F4F4" stroke-width="2.8539" stroke-miterlimit="10"/>
<path d="M-462.608 401.786C-314.56 505.485 -186.431 635.022 -84.3708 784.178C155.721 1138.45 98.7252 1399.94 248.17 1453.26C479.259 1535.62 679.74 933.759 1183.52 875.602C1553.12 832.963 1904.54 1103.82 1985.87 1166.51C2303.2 1411.11 2328.53 1656.46 2567.88 1681.66C2742.91 1700.28 2804.62 1576.96 3083.21 1544.49C3277.17 1521.9 3442.38 1558.83 3552.96 1594.15" stroke="#F4F4F4" stroke-width="2.8539" stroke-miterlimit="10"/>
<path d="M-464.781 430.709C-316.716 534.384 -188.566 663.9 -86.4818 813.04C153.673 1167.32 96.6142 1428.86 246.121 1482.12C477.148 1564.48 677.691 962.62 1181.47 904.464C1551.08 861.824 1902.43 1132.68 1983.83 1195.37C2301.09 1439.97 2326.49 1685.32 2565.77 1710.52C2740.8 1729.14 2802.57 1605.82 3081.1 1573.36C3275.06 1550.76 3440.27 1587.75 3550.85 1623.01" stroke="#F4F4F4" stroke-width="2.8539" stroke-miterlimit="10"/>
<path d="M-466.827 459.633C-318.776 563.325 -190.629 692.838 -88.5279 841.964C151.564 1196.24 94.5681 1457.79 244.013 1511.04C474.916 1593.4 675.583 991.544 1179.42 933.139C1548.97 890.5 1900.38 1161.36 1981.72 1224.05C2299.05 1468.65 2324.38 1714 2563.72 1739.2C2738.75 1757.82 2800.46 1634.49 3079.05 1602.03C3273.01 1579.44 3438.23 1616.43 3548.87 1651.68" stroke="#F4F4F4" stroke-width="2.8539" stroke-miterlimit="10"/>
<path d="M-468.819 488.619C-320.772 592.323 -192.66 721.884 -90.6437 871.073C149.511 1225.35 92.4523 1486.9 241.959 1540.15C472.986 1622.58 673.529 1020.72 1177.31 962.559C1546.91 919.857 1898.27 1190.72 1979.66 1253.4C2296.93 1498.01 2322.32 1743.36 2561.61 1768.56C2736.63 1787.18 2798.41 1663.85 3076.94 1631.39C3270.9 1608.86 3436.11 1645.79 3546.69 1681.04" stroke="#F4F4F4" stroke-width="2.8539" stroke-miterlimit="10"/>
<path d="M-470.989 517.288C-322.908 620.943 -194.755 750.462 -92.69 899.618C147.402 1253.83 90.4059 1515.38 239.85 1568.7C470.94 1651.06 671.42 1049.2 1175.26 991.042C1544.8 948.34 1896.22 1219.2 1977.55 1281.95C2294.88 1526.49 2320.22 1771.84 2559.56 1797.1C2734.59 1815.72 2796.36 1692.39 3074.89 1660C3268.79 1637.4 3434 1674.33 3544.64 1709.65" stroke="#F4F4F4" stroke-width="2.8539" stroke-miterlimit="10"/>
<path d="M-473.102 546.455C-325.015 650.124 -196.844 779.64 -94.7405 928.785C145.352 1283 88.2934 1544.55 237.8 1597.86C468.703 1680.23 669.37 1078.37 1173.15 1020.02C1542.75 977.321 1894.11 1248.18 1975.5 1310.93C2292.77 1555.47 2318.17 1800.88 2557.45 1826.08C2732.48 1844.7 2794.25 1721.44 3072.78 1688.98C3266.74 1666.38 3431.95 1703.31 3542.53 1738.63" stroke="#F4F4F4" stroke-width="2.8539" stroke-miterlimit="10"/>
<path d="M-475.027 575.378C-326.985 679.138 -198.876 808.739 -96.852 957.957C143.24 1312.23 86.244 1573.72 235.751 1627.04C466.778 1709.4 667.259 1107.54 1171.1 1049.38C1540.64 1006.68 1892.06 1277.54 1973.39 1340.29C2290.72 1584.83 2316.05 1830.24 2555.4 1855.44C2730.43 1874.06 2792.2 1750.8 3070.73 1718.34C3264.63 1695.74 3429.84 1732.67 3540.48 1767.99" stroke="#F4F4F4" stroke-width="2.8539" stroke-miterlimit="10"/>
<path d="M-477.197 604.181C-329.146 707.873 -200.999 837.386 -98.898 986.512C141.194 1340.79 84.1979 1602.27 233.642 1655.59C464.67 1737.95 665.213 1136.09 1168.99 1077.94C1538.6 1035.3 1889.95 1306.15 1971.35 1368.84C2288.61 1613.38 2314.01 1858.8 2553.35 1883.99C2728.32 1902.61 2790.09 1779.35 3068.68 1746.89C3262.64 1724.3 3427.86 1761.23 3538.43 1796.54" stroke="#F4F4F4" stroke-width="2.8539" stroke-miterlimit="10"/>
<path d="M-479.313 633.227C-331.248 736.901 -203.098 866.417 -101.014 1015.56C139.079 1369.83 82.0822 1631.32 231.589 1684.63C462.616 1767 663.097 1165.14 1166.94 1106.98C1536.48 1064.34 1887.9 1335.2 1969.23 1397.89C2286.56 1642.49 2311.89 1887.84 2551.24 1913.04C2726.26 1931.66 2788.04 1808.33 3066.57 1775.87C3260.46 1753.28 3425.68 1790.21 3536.32 1825.53" stroke="#F4F4F4" stroke-width="2.8539" stroke-miterlimit="10"/>
<path d="M-481.235 662.151C-333.198 765.859 -205.054 895.369 -102.936 1044.48C137.156 1398.76 80.1602 1660.24 229.605 1713.56C460.508 1795.86 661.175 1193.81 1164.83 1135.91C1534.44 1093.27 1885.79 1364.12 1967.19 1426.81C2284.45 1671.42 2309.85 1916.77 2549.19 1941.96C2724.16 1960.58 2785.93 1837.26 3064.52 1804.8C3258.48 1782.2 3423.7 1819.2 3534.27 1854.45" stroke="#F4F4F4" stroke-width="2.8539" stroke-miterlimit="10"/>
<path d="M-483.472 691.074C-335.407 794.749 -207.257 924.265 -105.173 1073.4C134.92 1427.68 77.9232 1689.23 227.43 1742.48C458.457 1824.85 658.938 1222.99 1162.78 1164.83C1532.32 1122.19 1883.74 1393.05 1965.01 1455.74C2282.34 1700.34 2307.67 1945.69 2547.02 1970.89C2722.04 1989.51 2783.82 1866.18 3062.34 1833.72C3256.24 1811.13 3421.46 1848.12 3532.1 1883.37" stroke="#F4F4F4" stroke-width="2.8539" stroke-miterlimit="10"/>
<path d="M-485.521 719.999C-337.47 823.69 -209.323 953.203 -107.222 1102.33C132.871 1456.61 75.8743 1718.15 225.319 1771.41C456.284 1853.77 656.889 1251.91 1160.67 1193.82C1530.27 1151.18 1881.63 1422.03 1963.02 1484.72C2280.29 1729.33 2305.68 1974.68 2545.03 1999.87C2719.99 2018.49 2781.77 1895.17 3060.36 1862.71C3254.32 1840.18 3419.53 1877.11 3530.11 1912.36" stroke="#F4F4F4" stroke-width="2.8539" stroke-miterlimit="10"/>
<path d="M-487.443 748.983C-339.349 852.623 -211.193 982.145 -109.144 1131.31C130.948 1485.53 73.9522 1747.08 223.459 1800.33C454.3 1882.75 654.967 1280.71 1158.62 1222.74C1528.17 1180.04 1879.58 1450.89 1960.91 1513.58C2278.24 1758.19 2303.58 2003.54 2542.92 2028.73C2717.95 2047.35 2779.72 1924.03 3058.25 1891.57C3252.15 1869.04 3417.36 1905.97 3528 1941.22" stroke="#F4F4F4" stroke-width="2.8539" stroke-miterlimit="10"/>
<path d="M-489.68 777.968C-341.599 881.623 -213.446 1011.14 -111.381 1160.3C128.712 1514.51 71.7152 1776.06 221.16 1829.38C452.187 1911.74 652.73 1309.88 1156.51 1251.72C1526.11 1209.02 1877.47 1479.88 1958.86 1542.63C2276.13 1787.17 2301.52 2032.58 2540.87 2057.78C2715.9 2076.4 2777.61 1953.14 3056.2 1920.68C3250.16 1898.08 3415.37 1935.01 3525.95 1970.33" stroke="#F4F4F4" stroke-width="2.8539" stroke-miterlimit="10"/>
<path d="M-491.792 806.831C-343.712 910.487 -215.559 1040.01 -113.493 1189.16C126.599 1543.38 69.6025 1804.92 219.109 1858.24C450.075 1940.6 650.617 1338.74 1154.46 1280.71C1524 1238.01 1875.42 1508.87 1956.75 1571.62C2274.08 1816.16 2299.41 2061.57 2538.76 2086.77C2713.78 2105.39 2775.56 1982.12 3054.09 1949.66C3247.98 1927.07 3413.2 1964 3523.84 1999.32" stroke="#F4F4F4" stroke-width="2.8539" stroke-miterlimit="10"/>
<path d="M-493.654 835.755C-345.589 939.43 -217.439 1068.95 -115.355 1218.09C124.737 1572.36 67.741 1833.85 217.186 1887.16C448.027 1969.65 648.756 1367.6 1152.35 1309.51C1521.95 1266.87 1873.37 1537.73 1954.7 1600.42C2271.97 1844.96 2297.36 2090.37 2536.71 2115.57C2711.74 2134.19 2773.45 2010.92 3052.04 1978.46C3246 1955.87 3411.21 1992.8 3521.79 2028.12" stroke="#F4F4F4" stroke-width="2.8539" stroke-miterlimit="10"/>
<path d="M-495.948 864.861C-347.868 968.517 -219.715 1098.04 -117.649 1247.19C122.443 1601.47 65.4465 1862.95 214.953 1916.27C445.981 1998.63 646.461 1396.77 1150.3 1338.62C1519.85 1295.79 1871.26 1566.65 1952.6 1629.34C2269.92 1873.94 2295.26 2119.29 2534.6 2144.49C2709.63 2163.11 2771.4 2039.78 3049.93 2007.32C3243.83 1984.73 3409.04 2021.66 3519.68 2056.97" stroke="#F4F4F4" stroke-width="2.8539" stroke-miterlimit="10"/>
<path d="M-498 893.602C-349.936 997.277 -221.786 1126.79 -119.701 1275.93C120.391 1630.21 63.3945 1891.7 212.839 1945.01C443.867 2027.37 644.409 1425.51 1148.19 1367.61C1517.79 1324.97 1869.21 1595.82 1950.54 1658.51C2267.81 1903.12 2293.2 2148.47 2532.55 2173.66C2707.58 2192.28 2769.29 2068.96 3047.88 2036.5C3241.84 2013.9 3407.05 2050.83 3517.63 2086.15" stroke="#F4F4F4" stroke-width="2.8539" stroke-miterlimit="10"/>
<path d="M-499.862 922.526C-351.797 1026.2 -223.647 1155.72 -121.563 1304.86C118.529 1659.13 61.533 1920.68 211.04 1973.93C441.819 2056.55 642.548 1454.5 1146.14 1396.28C1515.68 1353.64 1867.1 1624.5 1948.43 1687.19C2265.76 1931.79 2291.09 2177.14 2530.44 2202.34C2705.47 2220.96 2767.24 2097.63 3045.77 2065.17C3239.67 2042.58 3404.94 2079.57 3515.52 2114.83" stroke="#F4F4F4" stroke-width="2.8539" stroke-miterlimit="10"/>
<path d="M-502.156 951.754C-354.106 1055.45 -225.958 1184.96 -123.857 1334.08C116.235 1688.36 59.2385 1949.91 208.683 2003.16C439.711 2085.53 640.253 1483.67 1144.03 1425.51C1513.64 1382.56 1865.05 1653.42 1946.39 1716.1C2263.72 1960.71 2289.05 2206.06 2528.4 2231.26C2703.42 2249.88 2765.13 2126.55 3043.72 2094.09C3237.68 2071.5 3402.9 2108.49 3513.48 2143.74" stroke="#F4F4F4" stroke-width="2.8539" stroke-miterlimit="10"/>
<path d="M-504.269 980.435C-356.194 1084.07 -228.041 1213.57 -125.97 1362.7C114.122 1716.98 57.1257 1978.53 206.632 2031.78C437.66 2114.21 638.14 1512.35 1141.98 1454.13C1511.52 1411.49 1862.94 1682.35 1944.27 1745.03C2261.6 1989.64 2287 2234.99 2526.28 2260.19C2701.31 2278.81 2763.08 2155.48 3041.61 2123.02C3235.51 2100.49 3400.78 2137.42 3511.36 2172.67" stroke="#F4F4F4" stroke-width="2.8539" stroke-miterlimit="10"/>
<path d="M-506.07 1009.35C-357.99 1113 -229.836 1242.52 -127.771 1391.68C112.321 1745.89 55.3247 2007.44 204.769 2060.76C435.611 2143.43 636.34 1541.38 1139.87 1483.1C1509.48 1440.4 1860.89 1711.26 1942.23 1774.01C2259.55 2018.55 2284.89 2263.9 2524.23 2289.16C2699.26 2307.78 2760.97 2184.45 3039.56 2152.06C3233.52 2129.46 3398.74 2166.39 3509.31 2201.71" stroke="#F4F4F4" stroke-width="2.8539" stroke-miterlimit="10"/>
<path d="M-508.428 1038.27C-360.347 1141.93 -232.194 1271.45 -130.129 1420.6C109.963 1774.82 52.967 2036.36 202.474 2089.68C433.501 2172.04 634.044 1570.18 1137.82 1512.03C1507.37 1469.32 1858.78 1740 1940.18 1802.93C2257.45 2047.47 2282.84 2292.89 2522.12 2318.09C2697.15 2336.71 2758.93 2213.44 3037.45 2180.98C3231.41 2158.39 3396.63 2195.32 3507.2 2230.63" stroke="#F4F4F4" stroke-width="2.8539" stroke-miterlimit="10"/>
<path d="M-510.477 1067.2C-362.412 1170.87 -234.262 1300.39 -132.178 1449.53C107.914 1803.8 50.9177 2065.29 200.362 2118.6C431.452 2200.97 631.932 1599.11 1135.71 1540.95C1505.32 1498.25 1856.73 1769.11 1938.07 1831.86C2255.4 2076.4 2280.73 2321.81 2520.07 2347.01C2695.1 2365.63 2756.81 2242.36 3035.4 2209.9C3229.36 2187.31 3394.58 2224.24 3505.15 2259.56" stroke="#F4F4F4" stroke-width="2.8539" stroke-miterlimit="10"/>
</g>
<g filter="url(#filter0_f_135_468)">
<circle cx="129.5" cy="212.5" r="212.5" fill="#66EF49" fill-opacity="0.2"/>
</g>
<g filter="url(#filter1_f_135_468)">
<circle cx="1465.5" cy="587.5" r="212.5" fill="#FFF500" fill-opacity="0.2"/>
</g>
</g>
<defs>
<filter id="filter0_f_135_468" x="-356" y="-273" width="971" height="971" filterUnits="userSpaceOnUse" color-interpolation-filters="sRGB">
<feFlood flood-opacity="0" result="BackgroundImageFix"/>
<feBlend mode="normal" in="SourceGraphic" in2="BackgroundImageFix" result="shape"/>
<feGaussianBlur stdDeviation="136.5" result="effect1_foregroundBlur_135_468"/>
</filter>
<filter id="filter1_f_135_468" x="980" y="102" width="971" height="971" filterUnits="userSpaceOnUse" color-interpolation-filters="sRGB">
<feFlood flood-opacity="0" result="BackgroundImageFix"/>
<feBlend mode="normal" in="SourceGraphic" in2="BackgroundImageFix" result="shape"/>
<feGaussianBlur stdDeviation="136.5" result="effect1_foregroundBlur_135_468"/>
</filter>
<clipPath id="clip0_135_468">
<rect width="1536" height="5183" fill="white"/>
</clipPath>
<clipPath id="clip1_135_468">
<rect width="2622.64" height="1368" fill="white" transform="translate(-456 778)"/>
</clipPath>
</defs>
</svg>
