<svg width="133" height="62" viewBox="0 0 133 62" fill="none" xmlns="http://www.w3.org/2000/svg">
<path fill-rule="evenodd" clip-rule="evenodd" d="M0.226252 9.24463V38.3286H8.40823C11.4963 38.3286 13.8639 37.7266 15.5074 36.0488C17.1923 34.3709 18.0347 32.3051 18.0347 29.5091C18.0347 26.4541 16.551 23.8307 13.5029 22.5823C15.7086 21.0333 16.4711 18.9682 16.4305 16.6017C16.3905 14.4085 15.5481 12.7299 14.1442 11.3964C12.8217 10.105 10.5347 9.24463 7.92746 9.24463H0.226252ZM4.03692 21.2495V12.8602H7.80764C10.8957 12.8602 12.5798 14.4514 12.5798 16.8179C12.5798 19.0977 11.2966 21.2495 8.12791 21.2495H4.03692ZM4.03692 34.7145V24.6903H8.68856C12.3787 24.6903 14.1841 26.928 14.1841 29.5091C14.1841 32.4354 12.0976 34.7145 8.36829 34.7145H4.03692ZM27.3091 25.0343C22.8175 25.0343 19.8365 27.6444 19.8365 31.7514C19.8365 36.158 22.5786 38.5532 26.8319 38.5532C28.7787 38.5532 30.6074 37.9553 31.2832 37.0997V38.2969H34.9399V25.4621C34.9399 23.3239 34.7413 20.4148 33.3106 18.4048C32.2375 16.8637 30.3296 16.0074 27.7459 16.0074C25.9568 16.0074 22.4591 16.8637 21.3069 21.7836H23.0161H24.9636C25.2817 20.6711 25.9179 19.13 27.7855 19.0873C30.529 19.0446 31.2832 21.0554 31.2832 23.8798V25.0343H27.3091ZM31.2825 28.1156V32.0518C31.2825 34.1907 29.2558 35.3886 27.4278 35.3894C25.0032 35.3894 23.612 34.0199 23.612 31.6667C23.612 29.5698 24.8038 28.1156 27.3084 28.1156H31.2825ZM41.2 38.3284H37.4215L39.7932 23.9562C40.5974 18.9796 42.526 16.2336 46.827 16.2336H52.9757V38.3277H49.278V19.6235H47.1486C44.897 19.6235 44.0535 21.2538 43.531 24.3438L41.2 38.3284ZM70.7819 19.659V16.2771H55.0037H55.0029V19.6598H61.1454V38.3284H64.8393V19.659H70.7819ZM71.0079 31.7514C71.0079 27.6444 73.9888 25.0343 78.4804 25.0343H82.4553V23.8798C82.4553 21.0554 81.6996 19.0446 78.9568 19.0873C77.0893 19.13 76.4538 20.6711 76.1349 21.7836H74.1875H72.4782C73.6311 16.8637 77.1281 16.0074 78.9165 16.0074C81.501 16.0074 83.4074 16.8637 84.4819 18.4048C85.9119 20.4148 86.1113 23.3239 86.1113 25.4621V38.2969H82.4553V37.0997C81.7787 37.9553 79.9507 38.5532 78.0033 38.5532C73.7506 38.5532 71.0079 36.158 71.0079 31.7514ZM82.4553 32.0518V28.1156H78.4804C75.9766 28.1156 74.7841 29.5698 74.7841 31.6667C74.7841 34.0199 76.1753 35.3894 78.5992 35.3894C80.4272 35.3886 82.4553 34.1907 82.4553 32.0518ZM5.63643 42.8395V51.1814H4.92384V43.4329H0.712593V51.1814H0V42.8395H5.63643ZM8.11559 48.0331C8.11559 50.1764 8.98679 51.4061 10.9005 51.4061L10.9741 51.4046C11.7899 51.3907 12.8383 50.9567 13.1605 49.8116H12.6743C12.3805 50.5919 11.4473 50.9347 10.9967 50.9347C8.89056 50.9347 8.82713 49.4556 8.82713 47.8559V47.4499H10.1846C10.3187 47.4381 10.5382 47.4411 10.7358 47.4455L11.0091 47.4499C12.5292 47.4322 13.4711 46.5467 13.5236 45.0794C13.5404 44.6285 13.4871 44.2586 13.3377 43.871C12.8609 43.0031 12.1479 42.6133 10.9763 42.6133C9.09396 42.6133 8.11559 43.9225 8.11559 45.9495V48.0331ZM8.82713 45.8068C8.82713 44.9397 9.03272 43.137 10.8269 43.137C12.0334 43.137 12.8128 43.8908 12.8128 45.0573C12.8128 46.2422 12.1085 46.9784 10.9763 46.9784H8.82713V45.8068ZM15.1036 42.8395H20.9655V43.4329H18.4448V51.1814H17.7102V43.4329H15.1036V42.8395ZM32.9134 51.1814V42.8395H27.277V51.1814H27.9895V43.4329H32.2002V51.1814H32.9134ZM40.8906 43.5156C41.4372 44.1255 41.7026 44.9582 41.7026 46.0603V48.0328C41.7026 49.1786 41.4162 50.055 40.8516 50.6368C40.3133 51.1919 39.6295 51.4613 38.7605 51.4613C38.1615 51.4613 37.5624 51.277 36.9814 50.9151L36.3456 50.5183V55.0134H35.6153V42.8472H36.3426V44.1484L36.3523 44.1425C37.0631 42.8575 37.9545 42.6133 38.8138 42.6133C39.5935 42.6133 40.3605 42.9071 40.8906 43.5156ZM40.3508 50.0868C40.7512 49.5746 40.9544 48.8544 40.9544 47.9433H40.9551V46.1491C40.9551 44.3327 40.0966 43.2476 38.6593 43.2476C37.2543 43.2476 36.3463 44.218 36.3463 45.7191V50.0335L36.539 50.1534C37.2873 50.6212 38.028 50.8692 38.6788 50.8692H38.6796C39.3716 50.8692 39.9489 50.5983 40.3508 50.0868ZM50.0437 46.2341C50.0437 43.9335 48.8938 42.6133 46.8877 42.6133C44.8815 42.6133 43.7309 43.9335 43.7309 46.2341V47.8206C43.7309 50.0991 44.8815 51.4061 46.8877 51.4061C48.8938 51.4061 50.0437 50.0991 50.0437 47.8206V46.2341ZM49.3061 47.7316C49.3061 50.2764 47.9906 50.8104 46.8877 50.8104C45.7832 50.8104 44.4684 50.2764 44.4684 47.7316V46.3231C44.4684 43.7776 45.7832 43.2443 46.8877 43.2443C47.9906 43.2443 49.3061 43.7776 49.3061 46.3231V47.7316ZM58.3861 50.6132V53.4264L57.8549 53.433V51.2078H51.0245L51.0289 53.436L50.4962 53.4323V50.6124H51.6553L52.6319 45.7219C53.0356 43.7012 53.8385 42.8395 55.3156 42.8395H57.2102V50.6132H58.3861ZM52.385 50.6132H56.4958V43.4348H55.4313C54.3778 43.4348 53.6876 44.2045 53.3792 45.7211L52.385 50.6132ZM61.7636 51.4061C62.4923 51.4061 62.9008 51.278 63.3952 50.9508C63.8644 50.641 63.9931 50.396 63.9931 50.396V51.2961H64.6979V46.2329C64.6979 45.4158 64.6357 44.2399 64.1022 43.4613C63.7285 42.9057 63.0504 42.6133 62.1388 42.6133C61.6574 42.6133 60.5578 42.7836 60.0294 44.2452H60.7096C60.9916 43.4982 61.4737 43.1108 62.1468 43.0949H62.1482C63.3873 43.0949 63.9931 43.9233 63.9931 45.5568V46.4666H61.9595C60.3113 46.4666 59.2869 47.4058 59.2869 48.9171C59.2862 50.5219 60.166 51.4061 61.7636 51.4061ZM61.9595 46.949H63.9931V49.0453C63.9931 50.1978 62.9839 50.8868 62.0087 50.8868C60.7942 50.8868 60.0402 50.1187 60.0402 48.8817C60.0402 47.6892 60.7761 46.949 61.9595 46.949ZM73.0382 51.1807H72.2424L70.544 46.6243L67.9195 47.7083V51.1814H67.1763V42.8395H67.9195V46.9932L70.2056 46.1915C70.9336 45.9003 71.1752 45.4162 71.3673 44.7803L71.9009 42.9099H72.5168L71.9497 44.9937C71.7576 45.6766 71.381 46.1556 71.2095 46.3301L71.1432 46.3851L73.0382 51.1807ZM79.8 42.8395H73.9381V43.4329H76.5443V51.1814H77.2798V43.4329H79.8V42.8395ZM84.3579 51.4061C82.2618 51.4061 81.1524 50.1663 81.1524 47.8212V46.2159C81.1524 43.859 82.2618 42.6133 84.3579 42.6133C84.9851 42.6133 85.6489 42.714 86.3379 42.9126V43.5053C85.6087 43.3229 84.8839 43.245 84.4256 43.245C82.7358 43.245 81.8786 44.2752 81.8786 46.3056V47.7491C81.8786 49.7802 82.7358 50.8105 84.4256 50.8105C84.9524 50.8105 85.6645 50.7016 86.3379 50.5303L86.3334 51.1267C85.5856 51.3142 84.9368 51.4061 84.3579 51.4061Z" fill="#073580"/>
<path d="M89.635 2.47043C92.8397 2.88221 96.0409 3.3493 99.2186 3.92933C103.092 4.63643 106.938 5.4953 110.596 7.01185C112.135 7.64953 113.607 8.40957 114.959 9.39198C117.827 11.478 119.113 14.3252 119.02 17.8277C118.967 19.8078 118.408 21.6832 117.668 23.4951C115.519 28.7577 112.622 33.6027 109.294 38.1983C105.174 43.888 100.921 49.4777 96.3562 54.8192C94.7468 56.7028 92.9856 58.4605 91.2326 60.2159C90.6303 60.8195 89.8479 61.2466 89.1326 61.7337C88.9561 61.8537 88.7314 61.9184 88.5185 61.9678C87.8655 62.1219 87.3138 61.7089 87.2397 61.0418C87.1761 60.4712 87.3573 59.963 87.6514 59.4971C88.575 58.0299 89.5373 56.5887 90.4409 55.1098C94.4538 48.5423 98.5374 42.0161 102.102 35.1875C103.783 31.9673 105.302 28.6777 106.186 25.1328C106.525 23.7763 106.739 22.4045 106.732 20.9997C106.72 18.7372 105.676 16.9136 104.292 15.2405C102.243 12.7651 99.6186 11.0615 96.7503 9.69788C92.5609 7.70601 88.1338 6.43417 83.6314 5.3847C82.3467 5.08469 81.089 4.67055 79.8302 4.2717C79.4878 4.16346 79.1643 3.95756 78.8737 3.73991C78.2784 3.29282 78.3043 2.51161 78.9749 2.19747C79.4643 1.96805 79.9029 1.92679 80.4476 1.84326C80.8064 1.78796 81.3161 1.80568 81.6831 1.80568C83.3723 1.80569 88.8379 2.36799 89.635 2.47043Z" fill="#66BC54"/>
<path d="M111.448 0.492462C113.798 0.79629 116.145 1.14092 118.476 1.56888C121.316 2.0906 124.136 2.72429 126.819 3.84325C127.948 4.31375 129.027 4.87453 130.018 5.59937C132.122 7.13848 133.065 9.23923 132.997 11.8235C132.958 13.2845 132.548 14.6682 132.005 16.005C130.429 19.888 128.305 23.4627 125.864 26.8534C122.843 31.0515 119.724 35.1757 116.376 39.1168C115.196 40.5066 113.905 41.8035 112.619 43.0987C112.177 43.544 111.604 43.8591 111.079 44.2185C110.95 44.3071 110.785 44.3548 110.629 44.3913C110.15 44.505 109.745 44.2003 109.691 43.7081C109.644 43.2871 109.777 42.912 109.993 42.5683C110.67 41.4858 111.376 40.4224 112.039 39.3312C114.981 34.4856 117.976 29.6704 120.59 24.632C121.823 22.2561 122.937 19.8289 123.585 17.2134C123.833 16.2125 123.99 15.2003 123.985 14.1639C123.976 12.4945 123.211 11.149 122.196 9.9146C120.694 8.08816 118.769 6.83118 116.665 5.82508C113.593 4.35542 110.347 3.41702 107.045 2.64269C106.103 2.42133 105.18 2.11577 104.257 1.82149C104.006 1.74163 103.769 1.58971 103.556 1.42912C103.119 1.09925 103.138 0.522844 103.63 0.291067C103.989 0.121791 104.311 0.0913533 104.71 0.0297197C104.973 -0.0110801 105.347 0.00199498 105.616 0.00199498C106.855 0.00199727 110.863 0.416882 111.448 0.492462Z" fill="#9BD491"/>
</svg>
