<svg width="218" height="102" viewBox="0 0 218 102" fill="none" xmlns="http://www.w3.org/2000/svg">
<path fill-rule="evenodd" clip-rule="evenodd" d="M0.370859 15.2087V63.0566H13.7819C18.8435 63.0566 22.7243 62.0662 25.4181 59.3059C28.1799 56.5455 29.5607 53.1469 29.5607 48.5471C29.5607 43.521 27.1287 39.2051 22.1326 37.1513C25.7479 34.603 26.9978 31.2055 26.9311 27.3123C26.8657 23.7041 25.4848 20.9426 23.1837 18.7487C21.016 16.6242 17.2674 15.2087 12.9939 15.2087H0.370859ZM6.61691 34.9587V21.157H12.7975C17.8591 21.157 20.6196 23.7748 20.6196 27.668C20.6196 31.4187 18.5162 34.9587 13.3224 34.9587H6.61691ZM6.61691 57.1108V40.6194H14.2414C20.2898 40.6194 23.2492 44.3007 23.2492 48.5471C23.2492 53.3613 19.8292 57.1108 13.7165 57.1108H6.61691ZM44.7623 41.1852C37.4001 41.1852 32.514 45.4793 32.514 52.236C32.514 59.4856 37.0085 63.426 43.9802 63.426C47.1711 63.426 50.1685 62.4424 51.2762 61.0349V63.0045H57.27V41.889C57.27 38.3714 56.9444 33.5855 54.5993 30.2787C52.8405 27.7434 49.7132 26.3347 45.4783 26.3347C42.5457 26.3347 36.8126 27.7434 34.924 35.8373H37.7257H40.9178C41.4392 34.0071 42.482 31.4718 45.5432 31.4016C50.04 31.3313 51.2762 34.6394 51.2762 39.2859V41.1852H44.7623ZM51.275 46.2546V52.7302C51.275 56.249 47.9532 58.2198 44.9569 58.221C40.9827 58.221 38.7024 55.968 38.7024 52.0967C38.7024 48.6469 40.6559 46.2546 44.7611 46.2546H51.275ZM67.5308 63.0563H61.3375L65.225 39.4116C66.5431 31.2244 69.7042 26.7068 76.754 26.7068H86.8324V63.0551H80.7715V32.2836H77.2812C73.5905 32.2836 72.208 34.9657 71.3515 40.0494L67.5308 63.0563ZM116.018 32.3421V26.7783H90.1563H90.1551V32.3433H100.223V63.0563H106.278V32.3421H116.018ZM116.389 52.236C116.389 45.4793 121.275 41.1852 128.637 41.1852H135.152V39.2859C135.152 34.6394 133.914 31.3313 129.418 31.4016C126.357 31.4718 125.315 34.0071 124.793 35.8373H121.6H118.799C120.689 27.7434 126.42 26.3347 129.352 26.3347C133.588 26.3347 136.713 27.7434 138.474 30.2787C140.818 33.5855 141.145 38.3714 141.145 41.889V63.0045H135.152V61.0349C134.043 62.4424 131.047 63.426 127.855 63.426C120.884 63.426 116.389 59.4856 116.389 52.236ZM135.152 52.7302V46.2546H128.637C124.533 46.2546 122.578 48.6469 122.578 52.0967C122.578 55.968 124.859 58.221 128.832 58.221C131.828 58.2198 135.152 56.249 135.152 52.7302ZM9.23866 70.4777V84.2015H8.07065V71.4539H1.16801V84.2015H0V70.4777H9.23866ZM13.3023 79.0221C13.3023 82.548 14.7303 84.5712 17.867 84.5712L17.9877 84.5687C19.3249 84.5458 21.0432 83.8319 21.5714 81.9479H20.7744C20.2928 83.2317 18.7633 83.7956 18.0248 83.7956C14.5725 83.7956 14.4686 81.3622 14.4686 78.7305V78.0625H16.6936C16.9135 78.0432 17.2731 78.048 17.597 78.0553L18.0451 78.0625C20.5366 78.0335 22.0805 76.5767 22.1665 74.1627C22.194 73.421 22.1068 72.8123 21.8618 72.1747C21.0803 70.7469 19.9116 70.1056 17.9913 70.1056C14.9059 70.1056 13.3023 72.2594 13.3023 75.5941V79.0221ZM14.4686 75.3594C14.4686 73.9328 14.8055 70.9671 17.7463 70.9671C19.724 70.9671 21.0014 72.2073 21.0014 74.1264C21.0014 76.0757 19.8471 77.2869 17.9913 77.2869H14.4686V75.3594ZM24.7563 70.4777H34.3645V71.4539H30.2328V84.2015H29.0288V71.4539H24.7563V70.4777ZM53.9483 84.2015V70.4777H44.7097V84.2015H45.8775V71.4539H52.7793V84.2015H53.9483ZM67.0237 71.5899C67.9196 72.5933 68.3546 73.9632 68.3546 75.7764V79.0216C68.3546 80.9066 67.8852 82.3484 66.9598 83.3055C66.0774 84.2188 64.9566 84.662 63.5323 84.662C62.5504 84.662 61.5684 84.3588 60.616 83.7634L59.5739 83.1107V90.5058H58.3769V70.4904H59.569V72.6311L59.5849 72.6213C60.75 70.5074 62.2112 70.1056 63.6195 70.1056C64.8976 70.1056 66.1548 70.589 67.0237 71.5899ZM66.1389 82.4007C66.7951 81.5581 67.1282 80.3733 67.1282 78.8743H67.1294V75.9225C67.1294 72.9343 65.7222 71.1491 63.3664 71.1491C61.0633 71.1491 59.5751 72.7455 59.5751 75.215V82.3131L59.8909 82.5103C61.1174 83.2799 62.3316 83.6879 63.3983 83.6879H63.3996C64.5339 83.6879 65.4801 83.2422 66.1389 82.4007ZM82.0264 76.0624C82.0264 72.2775 80.1417 70.1056 76.8534 70.1056C73.5651 70.1056 71.6791 72.2775 71.6791 76.0624V78.6724C71.6791 82.421 73.5651 84.5712 76.8534 84.5712C80.1417 84.5712 82.0264 82.421 82.0264 78.6724V76.0624ZM80.8175 78.526C80.8175 82.7126 78.6612 83.5911 76.8534 83.5911C75.0431 83.5911 72.8881 82.7126 72.8881 78.526V76.2088C72.8881 72.021 75.0431 71.1437 76.8534 71.1437C78.6612 71.1437 80.8175 72.021 80.8175 76.2088V78.526ZM95.7004 83.2667V87.8949L94.8298 87.9058V84.2449H83.634L83.6413 87.9106L82.7682 87.9046V83.2655H84.668L86.2688 75.2197C86.9305 71.8953 88.2466 70.4777 90.6676 70.4777H93.773V83.2667H95.7004ZM85.8641 83.2667H92.6022V71.4571H90.8573C89.1304 71.4571 87.9992 72.7234 87.4937 75.2185L85.8641 83.2667ZM101.237 84.5712C102.431 84.5712 103.1 84.3604 103.911 83.8222C104.68 83.3125 104.891 82.9095 104.891 82.9095V84.3901H106.046V76.0605C106.046 74.7162 105.944 72.7817 105.07 71.5007C104.457 70.5867 103.346 70.1056 101.852 70.1056C101.062 70.1056 99.2601 70.3858 98.394 72.7903H99.509C99.9711 71.5614 100.761 70.924 101.865 70.898H101.867C103.898 70.898 104.891 72.2608 104.891 74.9481V76.4449H101.558C98.8561 76.4449 97.177 77.99 97.177 80.4764C97.1759 83.1165 98.6179 84.5712 101.237 84.5712ZM101.558 77.2385H104.891V80.6872C104.891 82.5833 103.237 83.7168 101.638 83.7168C99.6476 83.7168 98.4117 82.4531 98.4117 80.4181C98.4117 78.4563 99.618 77.2385 101.558 77.2385ZM119.717 84.2003H118.412L115.629 76.7043L111.327 78.4878V84.2015H110.109V70.4777H111.327V77.3112L115.074 75.9923C116.267 75.5132 116.663 74.7168 116.978 73.6706L117.853 70.5935H118.862L117.933 74.0218C117.618 75.1452 117 75.9332 116.719 76.2204L116.611 76.3109L119.717 84.2003ZM130.8 70.4777H121.192V71.4539H125.463V84.2015H126.669V71.4539H130.8V70.4777ZM138.271 84.5712C134.835 84.5712 133.017 82.5314 133.017 78.6734V76.0324C133.017 72.155 134.835 70.1056 138.271 70.1056C139.299 70.1056 140.387 70.2713 141.516 70.5979V71.573C140.321 71.273 139.133 71.1448 138.382 71.1448C135.612 71.1448 134.207 72.8397 134.207 76.18V78.5548C134.207 81.8963 135.612 83.5912 138.382 83.5912C139.245 83.5912 140.413 83.4122 141.516 83.1303L141.509 84.1114C140.283 84.4199 139.22 84.5712 138.271 84.5712Z" fill="#073580"/>
<path d="M146.92 4.06437C152.173 4.74183 157.42 5.51025 162.629 6.4645C168.977 7.62779 175.281 9.04076 181.278 11.5357C183.8 12.5848 186.213 13.8352 188.429 15.4514C193.13 18.8832 195.238 23.5674 195.085 29.3296C194.999 32.5872 194.083 35.6725 192.87 38.6533C189.346 47.3112 184.599 55.282 179.143 62.8424C172.39 72.2029 165.419 81.3989 157.937 90.1865C155.299 93.2853 152.412 96.1771 149.539 99.065C148.552 100.058 147.269 100.761 146.097 101.562C145.808 101.759 145.439 101.866 145.09 101.947C144.02 102.201 143.116 101.521 142.994 100.424C142.89 99.485 143.187 98.6489 143.669 97.8824C145.183 95.4687 146.76 93.0976 148.241 90.6646C154.819 79.8601 161.512 69.1234 167.355 57.8892C170.111 52.5915 172.601 47.1796 174.049 41.3477C174.604 39.116 174.955 36.8591 174.943 34.548C174.924 30.8258 173.214 27.8257 170.944 25.0732C167.587 21.0008 163.285 18.198 158.583 15.9547C151.716 12.6777 144.46 10.5854 137.08 8.85882C134.974 8.36525 132.913 7.68392 130.849 7.02776C130.288 6.84968 129.758 6.51095 129.282 6.15287C128.306 5.41734 128.348 4.13211 129.447 3.61531C130.25 3.23787 130.969 3.17 131.861 3.03258C132.45 2.9416 133.285 2.97076 133.887 2.97076C136.655 2.97076 145.614 3.89585 146.92 4.06437Z" fill="#66BC54"/>
<path d="M182.673 0.81018C186.526 1.31003 190.373 1.87699 194.193 2.58106C198.848 3.43937 203.471 4.4819 207.869 6.32276C209.719 7.09681 211.488 8.01938 213.113 9.21187C216.56 11.744 218.106 15.2 217.994 19.4516C217.931 21.8551 217.259 24.1316 216.369 26.3309C213.786 32.7189 210.304 38.6 206.304 44.1782C201.351 51.0847 196.239 57.8697 190.752 64.3534C188.818 66.6399 186.701 68.7735 184.594 70.9043C183.87 71.6369 182.929 72.1553 182.07 72.7466C181.857 72.8923 181.587 72.9708 181.331 73.0308C180.547 73.2179 179.883 72.7166 179.794 71.9068C179.718 71.2142 179.936 70.5972 180.289 70.0317C181.399 68.2508 182.556 66.5014 183.642 64.7062C188.466 56.7344 193.374 48.8125 197.659 40.5237C199.68 36.6149 201.505 32.6218 202.568 28.3188C202.975 26.6722 203.232 25.007 203.224 23.3018C203.21 20.5555 201.955 18.3419 200.291 16.3111C197.829 13.3063 194.674 11.2384 191.226 9.58319C186.19 7.16536 180.869 5.62155 175.457 4.34766C173.913 3.98349 172.401 3.48078 170.888 2.99665C170.476 2.86526 170.088 2.61533 169.738 2.35113C169.023 1.80844 169.054 0.860163 169.86 0.478852C170.448 0.200367 170.975 0.150291 171.63 0.0488936C172.061 -0.0182285 172.674 0.00328206 173.115 0.00328206C175.146 0.00328584 181.715 0.685838 182.673 0.81018Z" fill="#9BD491"/>
</svg>
