<svg width="193" height="90" viewBox="0 0 193 90" fill="none" xmlns="http://www.w3.org/2000/svg">
<path fill-rule="evenodd" clip-rule="evenodd" d="M0.328496 13.4196V55.6383H12.2016C16.6827 55.6383 20.1184 54.7644 22.5034 52.3288C24.9484 49.8933 26.1709 46.8945 26.1709 42.8359C26.1709 38.4011 24.0178 34.5929 19.5947 32.7807C22.7953 30.5322 23.9019 27.5344 23.8429 24.0992C23.7849 20.9156 22.5624 18.4789 20.5252 16.5431C18.6061 14.6686 15.2874 13.4196 11.5039 13.4196H0.328496ZM5.85826 30.846V18.6681H11.3301C15.8112 18.6681 18.2551 20.9779 18.2551 24.4131C18.2551 27.7225 16.3929 30.846 11.7948 30.846H5.85826ZM5.85826 50.392V35.8408H12.6084C17.9632 35.8408 20.5832 39.089 20.5832 42.8359C20.5832 47.0836 17.5553 50.392 12.1436 50.392H5.85826ZM39.6289 36.3398C33.111 36.3398 28.7853 40.1287 28.7853 46.0904C28.7853 52.4872 32.7643 55.964 38.9365 55.964C41.7615 55.964 44.4152 55.0961 45.3959 53.8542V55.592H50.7023V36.9608C50.7023 33.857 50.414 29.6341 48.3378 26.7163C46.7807 24.4793 44.0121 23.2363 40.2628 23.2363C37.6665 23.2363 32.5909 24.4793 30.9189 31.621H33.3993H36.2253C36.6869 30.0061 37.6102 27.7691 40.3203 27.7071C44.3014 27.6451 45.3959 30.564 45.3959 34.6639V36.3398H39.6289ZM45.3948 40.8127V46.5265C45.3948 49.6313 42.4539 51.3703 39.8012 51.3713C36.2828 51.3713 34.264 49.3834 34.264 45.9675C34.264 42.9236 35.9935 40.8127 39.6279 40.8127H45.3948ZM59.7865 55.6375H54.3034L57.7451 34.7746C58.9121 27.5505 61.7106 23.5644 67.952 23.5644H76.8746V55.6365H71.5088V28.4852H68.4187C65.1513 28.4852 63.9273 30.8517 63.169 35.3373L59.7865 55.6375ZM102.713 28.5368V23.6276H79.8173H79.8162V28.5379H88.7297V55.6375H94.0901V28.5368H102.713ZM103.042 46.0904C103.042 40.1287 107.367 36.3398 113.885 36.3398H119.653V34.6639C119.653 30.564 118.557 27.6451 114.577 27.7071C111.866 27.7691 110.944 30.0061 110.482 31.621H107.656H105.175C106.848 24.4793 111.923 23.2363 114.518 23.2363C118.268 23.2363 121.035 24.4793 122.594 26.7163C124.669 29.6341 124.959 33.857 124.959 36.9608V55.592H119.653V53.8542C118.672 55.0961 116.019 55.964 113.193 55.964C107.022 55.964 103.042 52.4872 103.042 46.0904ZM119.653 46.5265V40.8127H113.885C110.252 40.8127 108.521 42.9236 108.521 45.9675C108.521 49.3834 110.54 51.3713 114.058 51.3713C116.71 51.3703 119.653 49.6313 119.653 46.5265ZM8.17915 62.1862V74.2954H7.14508V63.0475H1.03403V74.2954H-3.05176e-05V62.1862H8.17915ZM11.7767 69.7254C11.7767 72.8366 13.0409 74.6217 15.818 74.6217L15.9248 74.6195C17.1087 74.5993 18.63 73.9693 19.0976 72.307H18.3919C17.9656 73.4398 16.6114 73.9373 15.9576 73.9373C12.9013 73.9373 12.8092 71.7903 12.8092 69.4681V68.8788H14.7791C14.9738 68.8617 15.2922 68.866 15.5789 68.8724L15.9756 68.8788C18.1814 68.8532 19.5482 67.5677 19.6244 65.4377C19.6487 64.7833 19.5715 64.2462 19.3546 63.6836C18.6628 62.4238 17.6281 61.8579 15.928 61.8579C13.1964 61.8579 11.7767 63.7583 11.7767 66.7008V69.7254ZM12.8092 66.4937C12.8092 65.2349 13.1076 62.6181 15.7111 62.6181C17.462 62.6181 18.5929 63.7124 18.5929 65.4057C18.5929 67.1257 17.571 68.1944 15.928 68.1944H12.8092V66.4937ZM21.9172 62.186H30.4236V63.0474H26.7657V74.2953H25.6998V63.0474H21.9172V62.186ZM47.7615 74.2953V62.186H39.5824V74.2953H40.6163V63.0474H46.7265V74.2953H47.7615ZM59.3376 63.1677C60.1308 64.053 60.5159 65.2617 60.5159 66.8616V69.725C60.5159 71.3882 60.1003 72.6604 59.2811 73.5049C58.4999 74.3107 57.5076 74.7018 56.2466 74.7018C55.3773 74.7018 54.508 74.4343 53.6648 73.9089L52.7421 73.333V79.8581H51.6824V62.1974H52.7378V64.0863L52.7519 64.0777C53.7834 62.2125 55.077 61.8579 56.3239 61.8579C57.4554 61.8579 58.5684 62.2845 59.3376 63.1677ZM58.5543 72.7066C59.1353 71.9631 59.4301 70.9176 59.4301 69.595H59.4312V66.9905C59.4312 64.3538 58.1854 62.7787 56.0997 62.7787C54.0608 62.7787 52.7432 64.1873 52.7432 66.3663V72.6292L53.0229 72.8033C54.1087 73.4823 55.1836 73.8423 56.128 73.8423H56.1291C57.1333 73.8423 57.9711 73.449 58.5543 72.7066ZM72.6198 67.114C72.6198 63.7743 70.9512 61.8579 68.04 61.8579C65.1288 61.8579 63.4591 63.7743 63.4591 67.114V69.4169C63.4591 72.7245 65.1288 74.6217 68.04 74.6217C70.9512 74.6217 72.6198 72.7245 72.6198 69.4169V67.114ZM71.5495 69.2877C71.5495 72.9818 69.6405 73.7569 68.04 73.7569C66.4373 73.7569 64.5294 72.9818 64.5294 69.2877V67.2431C64.5294 63.548 66.4373 62.7739 68.04 62.7739C69.6405 62.7739 71.5495 63.548 71.5495 67.2431V69.2877ZM84.7256 73.4704V77.5541L83.9548 77.5638V74.3335H74.043L74.0493 77.568L73.2764 77.5627V73.4694H74.9583L76.3755 66.3701C76.9613 63.4369 78.1265 62.186 80.2699 62.186H83.0192V73.4704H84.7256ZM76.0172 73.4704H81.9826V63.0502H80.4379C78.909 63.0502 77.9075 64.1675 77.4599 66.3691L76.0172 73.4704ZM89.627 74.6217C90.6844 74.6217 91.2771 74.4357 91.9947 73.9608C92.6755 73.5111 92.8622 73.1555 92.8622 73.1555V74.4619H93.885V67.1122C93.885 65.9261 93.7948 64.2192 93.0206 63.0889C92.4783 62.2825 91.4943 61.8579 90.1714 61.8579C89.4728 61.8579 87.8772 62.1052 87.1104 64.2268H88.0975C88.5066 63.1425 89.2063 62.5801 90.183 62.5571H90.1851C91.9831 62.5571 92.8622 63.7596 92.8622 66.1307V67.4514H89.9113C87.5195 67.4514 86.033 68.8148 86.033 71.0087C86.032 73.3382 87.3086 74.6217 89.627 74.6217ZM89.9113 68.1517H92.8622V71.1947C92.8622 72.8677 91.3978 73.8678 89.9826 73.8678C88.2203 73.8678 87.1261 72.7528 87.1261 70.9572C87.1261 69.2262 88.194 68.1517 89.9113 68.1517ZM105.988 74.2942H104.833L102.368 67.6801L98.5598 69.2537V74.2953H97.4813V62.186H98.5598V68.2156L101.877 67.0519C102.934 66.6292 103.284 65.9264 103.563 65.0033L104.337 62.2882H105.231L104.408 65.3132C104.129 66.3044 103.583 66.9997 103.334 67.2531L103.238 67.333L105.988 74.2942ZM115.8 62.186H107.294V63.0474H111.075V74.2953H112.143V63.0474H115.8V62.186ZM122.414 74.6217C119.372 74.6217 117.762 72.8219 117.762 69.4178V67.0875C117.762 63.6662 119.372 61.8579 122.414 61.8579C123.324 61.8579 124.287 62.0041 125.287 62.2924V63.1527C124.229 62.888 123.177 62.7749 122.512 62.7749C120.06 62.7749 118.816 64.2704 118.816 67.2177V69.3131C118.816 72.2615 120.06 73.757 122.512 73.757C123.277 73.757 124.31 73.599 125.287 73.3503L125.281 74.216C124.196 74.4882 123.254 74.6217 122.414 74.6217Z" fill="#073580"/>
<path d="M130.072 3.58558C134.722 4.18333 139.368 4.86136 143.979 5.70334C149.599 6.72977 155.18 7.97651 160.489 10.178C162.722 11.1036 164.858 12.2069 166.82 13.633C170.982 16.661 172.848 20.7941 172.713 25.8784C172.636 28.7528 171.825 31.4751 170.752 34.1053C167.632 41.7446 163.429 48.7776 158.6 55.4486C152.621 63.7078 146.449 71.8219 139.825 79.5757C137.49 82.31 134.934 84.8615 132.39 87.4097C131.516 88.2858 130.381 88.9058 129.343 89.6128C129.087 89.787 128.761 89.881 128.452 89.9527C127.504 90.1764 126.703 89.577 126.596 88.6086C126.504 87.7803 126.767 87.0425 127.193 86.3662C128.534 84.2364 129.93 82.1443 131.241 79.9975C137.065 70.4642 142.99 60.9906 148.163 51.0781C150.603 46.4037 152.807 41.6284 154.089 36.4826C154.581 34.5134 154.891 32.5221 154.881 30.4829C154.864 27.1986 153.35 24.5514 151.34 22.1228C148.368 18.5295 144.559 16.0565 140.397 14.077C134.318 11.1856 127.893 9.3394 121.36 7.81598C119.495 7.38047 117.67 6.7793 115.844 6.20033C115.347 6.0432 114.877 5.74432 114.456 5.42837C113.592 4.77938 113.629 3.64535 114.603 3.18935C115.313 2.85631 115.949 2.79643 116.74 2.67517C117.26 2.5949 118 2.62062 118.533 2.62062C120.984 2.62063 128.915 3.43688 130.072 3.58558Z" fill="#66BC54"/>
<path d="M161.725 0.714864C165.135 1.1559 168.542 1.65617 171.923 2.27741C176.045 3.03474 180.137 3.95462 184.031 5.57891C185.669 6.26189 187.235 7.07593 188.673 8.12812C191.726 10.3623 193.094 13.4118 192.995 17.1632C192.939 19.2839 192.344 21.2926 191.557 23.2331C189.269 28.8696 186.187 34.0588 182.645 38.9808C178.261 45.0747 173.735 51.0615 168.877 56.7825C167.164 58.7999 165.29 60.6825 163.425 62.5626C162.784 63.209 161.951 63.6665 161.19 64.1882C161.002 64.3167 160.763 64.386 160.537 64.4389C159.842 64.604 159.255 64.1617 159.176 63.4472C159.108 62.8361 159.301 62.2917 159.614 61.7927C160.597 60.2213 161.621 58.6777 162.582 57.0937C166.853 50.0597 171.198 43.0699 174.992 35.7562C176.781 32.3072 178.397 28.7839 179.337 24.9872C179.698 23.5343 179.926 22.065 179.918 20.5604C179.906 18.1372 178.795 16.184 177.322 14.3922C175.142 11.7409 172.349 9.91623 169.297 8.45576C164.838 6.32238 160.127 4.96019 155.336 3.83617C153.969 3.51484 152.63 3.07128 151.291 2.6441C150.926 2.52817 150.582 2.30765 150.273 2.07453C149.639 1.59568 149.667 0.758968 150.381 0.422517C150.901 0.176794 151.368 0.13261 151.948 0.0431414C152.33 -0.016084 152.872 0.00289594 153.263 0.00289594C155.06 0.00289927 160.876 0.605151 161.725 0.714864Z" fill="#9BD491"/>
</svg>
