<svg width="79" height="52" viewBox="0 0 79 52" fill="none" xmlns="http://www.w3.org/2000/svg">
<g clip-path="url(#clip0_156_492)">
<path d="M5.35938 30.9985C13.8452 41.6913 30.3605 42.4243 40.4949 47.2101C43.1245 48.4519 45.3254 49.9674 46.846 52.0003C47.2201 51.1271 47.697 50.3027 48.2663 49.5449C49.1856 48.3423 50.2454 47.2565 51.4226 46.3112C59.7784 39.4363 75.2785 35.3166 78.4306 25.9238C79.1856 23.6775 79.2346 21.1315 78.3069 18.1737C77.746 16.3143 76.9579 14.5328 75.961 12.8704C72.8473 7.78276 68.2941 5.55582 63.4487 4.75171C56.8502 3.65656 52.6212 4.56416 44.5406 6.67684C44.5406 6.67684 22.5742 -4.4363 7.70531 2.00091C5.7198 2.85461 4.01581 4.05323 2.71702 5.69164C0.223946 8.83479 -0.774137 13.5926 0.661141 20.5904C1.08578 22.7258 1.77284 24.7992 2.70636 26.7624C3.14538 27.6725 3.64412 28.5518 4.19922 29.3946C4.56604 29.9523 4.95276 30.4869 5.35938 30.9985Z" fill="#4A3024"/>
<path d="M7.34268 30.8924C15.4041 41.0527 31.0962 41.7512 40.7273 46.2978C43.2268 47.477 45.3168 48.9171 46.7606 50.8486C47.1157 50.0182 47.569 49.2342 48.1106 48.5139C48.9843 47.3738 49.9911 46.3445 51.1091 45.4484C59.049 38.9163 73.7771 34.9971 76.7713 26.0785C77.4879 23.9443 77.5348 21.5233 76.654 18.7122C76.1184 16.9433 75.3669 15.2487 74.4169 13.6676C71.4589 8.83215 67.1317 6.71731 62.5273 5.95416C56.2594 4.91291 52.2415 5.77523 44.5639 7.78443C44.5639 7.78443 23.6852 -2.77898 9.56278 3.34133C7.722 4.08845 6.09574 5.28987 4.83254 6.83588C2.46316 9.82812 1.51626 14.351 2.87903 20.9973C3.28151 23.0263 3.93422 24.9963 4.82188 26.8611C5.23765 27.7262 5.71002 28.5624 6.23583 29.364C6.58559 29.8964 6.95667 30.4074 7.34268 30.8924Z" fill="url(#paint0_linear_156_492)"/>
<path d="M55.9672 8.8344C55.9672 8.8344 66.9141 5.46058 71.4545 15.9723C71.4567 15.9723 68.215 8.92495 55.9672 8.8344Z" fill="#FDFDFE"/>
<path d="M12.9814 32.2765C12.9815 32.3378 12.9578 32.3967 12.9153 32.4403C12.8956 32.4618 12.8719 32.4789 12.8455 32.4908C12.8191 32.5026 12.7906 32.5089 12.7617 32.5093C12.7334 32.5094 12.7054 32.5033 12.6796 32.4914C12.6538 32.4795 12.6309 32.4621 12.6124 32.4403C12.5727 32.3954 12.5513 32.3368 12.5527 32.2765L12.5975 30.2393H11.8809L11.8212 30.7459C11.7764 31.1059 11.7295 31.3926 11.6762 31.6427C11.6402 31.8309 11.58 32.0136 11.4971 32.186C11.4497 32.2847 11.3812 32.3716 11.2966 32.4403C11.2283 32.4879 11.1471 32.5128 11.0641 32.5115C11.0318 32.5133 10.9995 32.5085 10.9691 32.4973C10.9387 32.4862 10.9108 32.469 10.8871 32.4468C10.8653 32.4272 10.8482 32.4029 10.8372 32.3756C10.8261 32.3483 10.8213 32.3189 10.8231 32.2894C10.8211 32.2343 10.8374 32.1801 10.8696 32.1356C10.9017 32.091 10.9477 32.0586 11.0002 32.0437C11.1196 32.0006 11.2092 31.8497 11.2689 31.591C11.3524 31.1769 11.4094 30.7578 11.4395 30.3363L11.4672 30.0323C11.4705 29.9705 11.4963 29.9121 11.5397 29.8685C11.5606 29.8469 11.5854 29.8297 11.6129 29.8178C11.6403 29.806 11.6698 29.7997 11.6997 29.7995H12.8214C12.8499 29.7988 12.8781 29.8047 12.9039 29.8166C12.9298 29.8286 12.9526 29.8463 12.9707 29.8685C12.9914 29.8901 13.0074 29.9158 13.0177 29.944C13.028 29.9722 13.0323 30.0023 13.0304 30.0323L12.9814 32.2765Z" fill="#4A3024"/>
<path d="M15.3167 31.8218L15.1034 32.378C15.0903 32.4177 15.0646 32.4519 15.0303 32.4753C14.996 32.4987 14.9549 32.5099 14.9136 32.5073C14.887 32.508 14.8607 32.5027 14.8363 32.4919C14.812 32.4811 14.7903 32.465 14.7729 32.4448C14.7447 32.4135 14.7262 32.3746 14.7198 32.3328C14.7133 32.291 14.7192 32.2483 14.7366 32.2098L15.66 29.9699C15.6755 29.9154 15.7079 29.8674 15.7525 29.8328C15.797 29.7983 15.8513 29.7791 15.9074 29.7781C15.9611 29.7799 16.0126 29.7994 16.0542 29.8337C16.0958 29.8679 16.1252 29.915 16.1378 29.9678L16.9567 32.2077C16.9674 32.2373 16.9724 32.2688 16.9716 32.3004C16.9714 32.3569 16.9492 32.4111 16.9098 32.4513C16.8917 32.4715 16.8697 32.4877 16.8451 32.4988C16.8205 32.5099 16.7938 32.5158 16.7669 32.5159C16.72 32.5208 16.6728 32.5087 16.6338 32.4819C16.5948 32.4551 16.5664 32.4152 16.5536 32.3693L16.3617 31.8304L15.3167 31.8218ZM15.4916 31.3906H16.2124L15.8733 30.4205L15.4916 31.3906Z" fill="#4A3024"/>
<path d="M20.6633 32.2701C20.6631 32.3309 20.6403 32.3894 20.5993 32.4339C20.5794 32.4556 20.5553 32.4729 20.5285 32.4848C20.5018 32.4966 20.4728 32.5028 20.4436 32.5029C20.4151 32.5036 20.3867 32.4979 20.3606 32.4864C20.3344 32.4748 20.3111 32.4577 20.2922 32.4361C20.2712 32.4142 20.255 32.3882 20.2447 32.3595C20.2344 32.3309 20.2303 32.3005 20.2325 32.2701L20.2773 30.2329H19.1789L19.1342 32.2679C19.1333 32.3297 19.1098 32.3888 19.068 32.4339C19.0484 32.4553 19.0247 32.4725 18.9983 32.4844C18.9719 32.4962 18.9434 32.5025 18.9145 32.5029C18.8858 32.5028 18.8574 32.4968 18.831 32.4853C18.8046 32.4739 18.7808 32.4571 18.7609 32.4361C18.7205 32.3898 18.6991 32.3296 18.7012 32.2679L18.7503 30.0259C18.7511 29.9642 18.7747 29.905 18.8164 29.8599C18.8363 29.8382 18.8604 29.8209 18.8871 29.8091C18.9139 29.7972 18.9428 29.791 18.9721 29.7909H20.5033C20.5321 29.7897 20.5608 29.7954 20.5871 29.8073C20.6134 29.8193 20.6365 29.8373 20.6547 29.8599C20.6751 29.8817 20.6907 29.9075 20.7006 29.9357C20.7105 29.9639 20.7145 29.9939 20.7123 30.0237L20.6633 32.2701Z" fill="#4A3024"/>
<path d="M22.8769 30.1445C22.9954 30.0157 23.1395 29.9137 23.2998 29.8453C23.4601 29.777 23.6329 29.7437 23.8068 29.7478C23.9767 29.7424 24.1458 29.7736 24.3028 29.8394C24.4598 29.9052 24.6012 30.004 24.7174 30.1294C24.8375 30.2646 24.9296 30.4228 24.9882 30.5946C25.0468 30.7664 25.0708 30.9483 25.0586 31.1297C25.063 31.4985 24.9245 31.8544 24.6726 32.1213C24.5536 32.2484 24.4095 32.3487 24.2497 32.4159C24.0899 32.4832 23.918 32.5157 23.7449 32.5115C23.5753 32.5171 23.4065 32.4859 23.2498 32.4201C23.0931 32.3543 22.9522 32.2554 22.8364 32.13C22.7164 31.9951 22.6243 31.8373 22.5657 31.6658C22.5071 31.4944 22.4831 31.3128 22.4952 31.1318C22.4934 30.7656 22.6299 30.4124 22.8769 30.1445ZM23.1755 31.8023C23.2461 31.8882 23.3348 31.9571 23.4352 32.0037C23.5356 32.0504 23.6451 32.0736 23.7556 32.0718C23.8702 32.0759 23.9843 32.0541 24.0895 32.0078C24.1947 31.9616 24.2883 31.8921 24.3634 31.8044C24.52 31.6155 24.6047 31.3762 24.6023 31.1297C24.6208 30.8846 24.5443 30.6418 24.389 30.4527C24.3171 30.3676 24.2273 30.2996 24.1263 30.2538C24.0252 30.2079 23.9154 30.1853 23.8046 30.1876C23.6924 30.1855 23.581 30.2082 23.4783 30.254C23.3755 30.2997 23.2838 30.3676 23.2096 30.4527C23.0427 30.6376 22.9513 30.8794 22.9537 31.1297C22.9393 31.3744 23.0187 31.6153 23.1755 31.8023Z" fill="#4A3024"/>
<path d="M28.0572 30.0001C28.0584 29.9381 28.0828 29.8788 28.1254 29.8341C28.1455 29.8128 28.1697 29.7959 28.1965 29.7844C28.2232 29.7729 28.252 29.7671 28.2811 29.7673C28.3093 29.7668 28.3373 29.7725 28.3631 29.7841C28.3888 29.7956 28.4118 29.8127 28.4304 29.8341C28.4514 29.856 28.4676 29.882 28.4779 29.9107C28.4882 29.9393 28.4923 29.9698 28.4901 30.0001L28.4411 32.2637C28.4404 32.3253 28.4159 32.3841 28.3728 32.4276C28.353 32.4481 28.3293 32.4644 28.3031 32.4755C28.2769 32.4867 28.2488 32.4924 28.2204 32.4924C28.1919 32.4924 28.1638 32.4867 28.1376 32.4755C28.1115 32.4644 28.0877 32.4481 28.0679 32.4276C28.0469 32.4057 28.0307 32.3796 28.0204 32.351C28.0101 32.3224 28.0059 32.2919 28.0082 32.2616L28.0273 31.3647C27.857 31.4926 27.6486 31.558 27.4366 31.5501C27.339 31.5519 27.242 31.5337 27.1515 31.4967C27.0609 31.4596 26.9787 31.4045 26.9098 31.3346C26.8331 31.2471 26.7755 31.1444 26.7406 31.0329C26.7057 30.9215 26.6943 30.804 26.7072 30.6878L26.7222 29.9958C26.7219 29.9339 26.7456 29.8743 26.7883 29.8298C26.8086 29.8083 26.8331 29.7912 26.8603 29.7797C26.8874 29.7682 26.9166 29.7625 26.9461 29.763C26.9741 29.7624 27.0019 29.7678 27.0277 29.779C27.0534 29.7901 27.0765 29.8067 27.0954 29.8277C27.1358 29.8739 27.1572 29.9341 27.1551 29.9958L27.1423 30.5542C27.1423 30.9228 27.2745 31.1061 27.5688 31.1061C27.7415 31.1011 27.908 31.0407 28.0444 30.9336L28.0572 30.0001Z" fill="#4A3024"/>
<path d="M30.8637 32.2617C30.862 32.323 30.8377 32.3815 30.7955 32.4256C30.7756 32.4461 30.7519 32.4624 30.7257 32.4736C30.6995 32.4847 30.6714 32.4904 30.643 32.4904C30.6146 32.4904 30.5865 32.4847 30.5603 32.4736C30.5341 32.4624 30.5104 32.4461 30.4905 32.4256C30.4695 32.4037 30.4534 32.3776 30.4431 32.349C30.4328 32.3204 30.4286 32.2899 30.4308 32.2596L30.4799 29.9981C30.4797 29.967 30.4857 29.936 30.4974 29.9072C30.5091 29.8783 30.5264 29.8521 30.5481 29.83C30.5682 29.8087 30.5923 29.7918 30.6191 29.7803C30.6459 29.7688 30.6747 29.763 30.7038 29.7632C30.732 29.7627 30.7599 29.7684 30.7857 29.7799C30.8115 29.7915 30.8345 29.8086 30.8531 29.83C30.8734 29.8523 30.8892 29.8784 30.8994 29.9069C30.9097 29.9354 30.9142 29.9657 30.9128 29.996L30.8893 31.0545L31.8021 29.8882C31.8232 29.8532 31.8522 29.8236 31.8866 29.8019C31.921 29.7802 31.96 29.7669 32.0004 29.7632C32.0262 29.7619 32.0519 29.7662 32.0758 29.7759C32.0997 29.7856 32.1213 29.8003 32.1391 29.8192C32.1728 29.857 32.1911 29.9063 32.1902 29.9572C32.1896 30.02 32.1652 30.0802 32.122 30.1253L31.3692 31.0308L32.1433 32.0936C32.1859 32.1466 32.2092 32.2128 32.2094 32.2811C32.2094 32.3383 32.187 32.3931 32.147 32.4336C32.107 32.474 32.0527 32.4967 31.9962 32.4967C31.9517 32.4928 31.909 32.4777 31.8717 32.4528C31.8345 32.428 31.804 32.3942 31.7829 32.3544L30.8872 31.0847L30.8637 32.2617Z" fill="#4A3024"/>
<path d="M36.0567 32.4233C36.0378 32.4456 36.0142 32.4633 35.9876 32.4753C35.9611 32.4872 35.9322 32.493 35.9032 32.4923C35.8743 32.4933 35.8456 32.4878 35.819 32.4763C35.7925 32.4647 35.7688 32.4474 35.7496 32.4255C35.7286 32.4036 35.7125 32.3776 35.7022 32.3489C35.6919 32.3203 35.6877 32.2898 35.6899 32.2595L35.7283 30.5629L34.4743 32.3479C34.4493 32.3906 34.4142 32.4263 34.3721 32.4519C34.33 32.4775 34.2823 32.4921 34.2333 32.4945C34.2037 32.4955 34.1741 32.4903 34.1466 32.4792C34.119 32.468 34.0941 32.4512 34.0734 32.4298C34.0357 32.384 34.0166 32.3254 34.02 32.2659L34.0691 29.9981C34.069 29.9672 34.075 29.9366 34.0867 29.9081C34.0984 29.8796 34.1157 29.8538 34.1373 29.8321C34.1574 29.8108 34.1816 29.7939 34.2084 29.7824C34.2351 29.7709 34.2639 29.765 34.293 29.7652C34.3212 29.7647 34.3492 29.7705 34.375 29.782C34.4007 29.7935 34.4237 29.8106 34.4423 29.8321C34.4633 29.8539 34.4795 29.88 34.4898 29.9086C34.5001 29.9372 34.5042 29.9677 34.502 29.9981L34.4658 31.6904L35.7176 29.901C35.7422 29.8601 35.7766 29.826 35.8175 29.8019C35.8585 29.7778 35.9048 29.7644 35.9522 29.7631C35.9819 29.762 36.0114 29.7672 36.039 29.7784C36.0665 29.7895 36.0914 29.8063 36.1122 29.8277C36.1334 29.8498 36.1498 29.8763 36.1601 29.9053C36.1704 29.9343 36.1744 29.9652 36.1719 29.9959L36.1228 32.2595C36.1223 32.3206 36.0987 32.3793 36.0567 32.4233Z" fill="#4A3024"/>
<path d="M40.3988 30.1314C40.5164 30.0021 40.6601 29.8998 40.8201 29.8314C40.9801 29.763 41.1528 29.73 41.3265 29.7348C41.4965 29.7282 41.666 29.7589 41.8232 29.8248C41.9803 29.8906 42.1216 29.9901 42.2371 30.1163C42.3578 30.2508 42.4502 30.4085 42.5089 30.5801C42.5675 30.7516 42.5912 30.9334 42.5784 31.1145C42.5828 31.4833 42.4442 31.8392 42.1924 32.1061C42.0731 32.233 41.9291 32.3334 41.7693 32.401C41.6096 32.4685 41.4378 32.5017 41.2647 32.4985C41.0949 32.5041 40.9259 32.4727 40.7691 32.4065C40.6124 32.3403 40.4715 32.2408 40.3561 32.1148C40.2358 31.9802 40.1437 31.8224 40.0854 31.6508C40.0271 31.4793 40.0038 31.2975 40.0171 31.1166C40.0143 30.7508 40.151 30.398 40.3988 30.1314ZM40.6952 31.7871C40.7655 31.8735 40.8541 31.9429 40.9546 31.9899C41.055 32.0369 41.1646 32.0605 41.2753 32.0587C41.3904 32.0625 41.5049 32.0402 41.6104 31.9936C41.7159 31.947 41.8098 31.8772 41.8853 31.7892C42.0406 31.5997 42.1244 31.3606 42.122 31.1145C42.1401 30.8694 42.0637 30.6269 41.9087 30.4376C41.8368 30.3526 41.747 30.2848 41.6459 30.2394C41.5448 30.1939 41.435 30.1717 41.3244 30.1745C41.2124 30.1722 41.1012 30.1947 40.9988 30.2406C40.8964 30.2864 40.8051 30.3544 40.7315 30.4397C40.5673 30.6257 40.4782 30.8673 40.482 31.1166C40.4632 31.3583 40.5364 31.5982 40.6867 31.7871H40.6952Z" fill="#4A3024"/>
<path d="M45.1484 30.7868C45.2575 30.7803 45.3668 30.796 45.4697 30.8331C45.5727 30.8701 45.6672 30.9277 45.7477 31.0024C45.8219 31.0801 45.8792 31.1725 45.9159 31.2739C45.9526 31.3753 45.968 31.4833 45.9609 31.591C45.9652 31.7114 45.9441 31.8314 45.8988 31.943C45.8536 32.0545 45.7853 32.155 45.6986 32.2377C45.4996 32.4 45.2479 32.4814 44.9927 32.4662H44.5491C44.5227 32.4653 44.4968 32.4589 44.4729 32.4474C44.449 32.4359 44.4278 32.4196 44.4105 32.3994C44.3742 32.3579 44.3551 32.3038 44.3572 32.2485L44.4062 29.9957C44.4081 29.9395 44.4301 29.8859 44.4681 29.8448C44.4861 29.8252 44.5079 29.8096 44.5321 29.7988C44.5563 29.7881 44.5824 29.7824 44.6088 29.7822H45.6517C45.6781 29.7819 45.7043 29.7875 45.7283 29.7987C45.7523 29.8099 45.7735 29.8264 45.7903 29.8469C45.8092 29.8678 45.8238 29.8923 45.8333 29.9189C45.8428 29.9456 45.8471 29.9738 45.8458 30.0021C45.8452 30.0605 45.8232 30.1166 45.7839 30.1595C45.7664 30.1798 45.7447 30.196 45.7204 30.2072C45.6962 30.2183 45.6698 30.2241 45.6432 30.2242H44.8349L44.8221 30.8213C44.9298 30.8015 45.0389 30.79 45.1484 30.7868ZM44.7901 32.0135C44.9223 32.0135 45.0034 32.0286 45.0652 32.0286C45.3659 32.0286 45.5216 31.8949 45.5259 31.6298C45.5304 31.5765 45.5238 31.5229 45.5066 31.4724C45.4893 31.4219 45.4617 31.3756 45.4256 31.3366C45.3823 31.2969 45.3313 31.2667 45.2759 31.2478C45.2205 31.2289 45.1619 31.2217 45.1036 31.2266C45.0044 31.2279 44.9054 31.2359 44.8072 31.2503L44.7901 32.0135Z" fill="#4A3024"/>
<path d="M49.6803 32.2464C49.6796 32.308 49.6551 32.3668 49.612 32.4103C49.5933 32.4322 49.5701 32.4498 49.5439 32.4617C49.5177 32.4737 49.4893 32.4796 49.4606 32.4792C49.4319 32.4798 49.4034 32.4739 49.3772 32.4619C49.351 32.45 49.3278 32.4324 49.3092 32.4103C49.269 32.3655 49.2476 32.3068 49.2495 32.2464L49.2943 30.2092H48.5777L48.518 30.7136C48.4847 31.0149 48.4363 31.3142 48.373 31.6105C48.337 31.7987 48.2768 31.9813 48.1938 32.1537C48.1471 32.2529 48.0785 32.3399 47.9933 32.4081C47.9251 32.4557 47.8438 32.4805 47.7609 32.4792C47.6961 32.4827 47.6325 32.4602 47.5839 32.4167C47.5622 32.3966 47.5452 32.3718 47.5341 32.3443C47.523 32.3167 47.5182 32.2869 47.5199 32.2572C47.5179 32.2021 47.5342 32.1479 47.5663 32.1033C47.5984 32.0588 47.6444 32.0264 47.6969 32.0114C47.8163 31.9683 47.9102 31.8174 47.9656 31.5609C48.049 31.146 48.106 30.7262 48.1362 30.304L48.164 30.0022C48.1671 29.9393 48.1938 29.88 48.2386 29.8362C48.259 29.814 48.2837 29.7964 48.3113 29.7845C48.3389 29.7726 48.3686 29.7667 48.3986 29.7672H49.5203C49.5486 29.7674 49.5765 29.7737 49.6023 29.7856C49.628 29.7975 49.651 29.8147 49.6696 29.8362C49.7094 29.8812 49.7308 29.9398 49.7293 30.0001L49.6803 32.2464Z" fill="#4A3024"/>
<path d="M53.7066 32.4083C53.6867 32.43 53.6626 32.4473 53.6358 32.4592C53.6091 32.471 53.5801 32.4772 53.5509 32.4773C53.5225 32.4769 53.4945 32.4708 53.4685 32.4593C53.4425 32.4478 53.4191 32.4312 53.3995 32.4105C53.3782 32.3884 53.3619 32.362 53.3516 32.3329C53.3413 32.3039 53.3372 32.273 53.3398 32.2423L53.376 30.5479L52.1284 32.3329C52.1028 32.3753 52.0672 32.4107 52.0248 32.4359C51.9824 32.4611 51.9345 32.4753 51.8853 32.4773C51.8559 32.4789 51.8265 32.4739 51.7993 32.4627C51.772 32.4516 51.7475 32.4345 51.7275 32.4126C51.6888 32.3673 51.669 32.3086 51.672 32.2488L51.7232 29.983C51.7224 29.9204 51.7462 29.8599 51.7893 29.8149C51.8094 29.7936 51.8336 29.7767 51.8603 29.7652C51.8871 29.7537 51.9159 29.7479 51.945 29.7481C51.9735 29.7475 52.0018 29.7532 52.0279 29.7648C52.0541 29.7763 52.0774 29.7934 52.0964 29.8149C52.1365 29.8605 52.1579 29.9199 52.1561 29.9809L52.1178 31.6732L53.3696 29.886C53.3945 29.8449 53.4293 29.8107 53.4706 29.7866C53.512 29.7625 53.5586 29.7492 53.6063 29.7481C53.636 29.747 53.6655 29.7522 53.6931 29.7633C53.7206 29.7745 53.7455 29.7913 53.7663 29.8127C53.7867 29.8354 53.8025 29.8619 53.8127 29.8908C53.823 29.9196 53.8275 29.9503 53.826 29.9809L53.7748 32.2423C53.7745 32.3046 53.75 32.3642 53.7066 32.4083Z" fill="#4A3024"/>
<path d="M57.2467 32.2398C57.2454 32.3012 57.221 32.3598 57.1785 32.4036C57.1587 32.4238 57.1351 32.4399 57.1091 32.4508C57.0831 32.4618 57.0552 32.4674 57.0271 32.4674C56.9989 32.4674 56.9711 32.4618 56.9451 32.4508C56.9191 32.4399 56.8955 32.4238 56.8757 32.4036C56.8359 32.3578 56.8146 32.2986 56.816 32.2376L56.8437 31.052L55.9394 32.3562C55.9192 32.3908 55.8905 32.4197 55.8562 32.4401C55.8219 32.4604 55.783 32.4716 55.7432 32.4726C55.7176 32.4742 55.6919 32.4698 55.6682 32.4597C55.6445 32.4496 55.6235 32.4341 55.6067 32.4144C55.5752 32.3748 55.5586 32.3251 55.5598 32.2743C55.5618 32.2203 55.5788 32.168 55.6089 32.1234L56.3788 31.0455L55.7134 30.0926C55.6817 30.0515 55.6657 30.0002 55.6686 29.9482C55.6683 29.9215 55.6732 29.8949 55.6831 29.8701C55.693 29.8454 55.7076 29.8228 55.7262 29.8037C55.7442 29.7845 55.7661 29.7694 55.7904 29.7594C55.8146 29.7494 55.8407 29.7446 55.8669 29.7455C55.906 29.75 55.9434 29.7641 55.9757 29.7867C56.0081 29.8093 56.0345 29.8396 56.0525 29.8749L56.8437 31.0412L56.8671 29.9784C56.8663 29.9157 56.8901 29.8552 56.9332 29.8102C56.9531 29.7892 56.9769 29.7724 57.0033 29.761C57.0297 29.7495 57.0581 29.7435 57.0868 29.7434C57.115 29.7429 57.143 29.7486 57.1687 29.7602C57.1945 29.7717 57.2175 29.7888 57.2361 29.8102C57.2564 29.8325 57.2722 29.8586 57.2824 29.8871C57.2927 29.9156 57.2972 29.9459 57.2958 29.9762L57.2723 31.0412L58.1105 29.8727C58.1324 29.8348 58.1634 29.803 58.2007 29.7804C58.238 29.7578 58.2803 29.745 58.3237 29.7434C58.3491 29.7425 58.3744 29.7471 58.3979 29.7568C58.4214 29.7664 58.4426 29.7809 58.4602 29.7994C58.4773 29.8187 58.4904 29.8412 58.4988 29.8656C58.5072 29.89 58.5108 29.9159 58.5093 29.9417C58.5085 29.9959 58.4898 30.0483 58.456 30.0905L57.7479 31.0412L58.4688 32.1191C58.4962 32.1629 58.5095 32.2142 58.5068 32.2659C58.5041 32.3177 58.4856 32.3673 58.4538 32.4079C58.4353 32.4279 58.4128 32.4436 58.3878 32.454C58.3628 32.4644 58.3358 32.4693 58.3088 32.4683C58.271 32.4674 58.234 32.4564 58.2018 32.4363C58.1696 32.4162 58.1432 32.3878 58.1254 32.3541L57.283 31.0476L57.2467 32.2398Z" fill="#4A3024"/>
<path d="M61.5462 31.9923C61.5726 31.9923 61.5986 31.998 61.6226 32.0092C61.6465 32.0204 61.6678 32.0367 61.6848 32.057C61.7216 32.0991 61.7408 32.154 61.7381 32.2101C61.7392 32.2395 61.7342 32.2689 61.7236 32.2963C61.7129 32.3238 61.6968 32.3487 61.6763 32.3696C61.6591 32.3896 61.6378 32.4056 61.6138 32.4164C61.5899 32.4272 61.5639 32.4326 61.5377 32.4321H60.4713C60.4452 32.4322 60.4193 32.4266 60.3954 32.4158C60.3715 32.4051 60.3501 32.3893 60.3327 32.3696C60.2964 32.3281 60.2773 32.2741 60.2794 32.2187L60.3284 29.9659C60.3287 29.9093 60.3509 29.8551 60.3903 29.815C60.4081 29.7951 60.4298 29.7793 60.454 29.7685C60.4783 29.7577 60.5045 29.7522 60.531 29.7525H61.5611C61.5872 29.7521 61.6131 29.7577 61.6367 29.769C61.6604 29.7802 61.6812 29.7966 61.6976 29.8171C61.7165 29.8381 61.7311 29.8625 61.7406 29.8892C61.7501 29.9158 61.7544 29.9441 61.7531 29.9724C61.7538 30.0014 61.7487 30.0304 61.7381 30.0574C61.7274 30.0845 61.7115 30.1091 61.6912 30.1297C61.6737 30.1501 61.6521 30.1664 61.6278 30.1776C61.6035 30.1888 61.5771 30.1945 61.5505 30.1944H60.7571L60.7422 30.8605H61.431C61.4569 30.8604 61.4825 30.8659 61.5061 30.8767C61.5296 30.8875 61.5506 30.9033 61.5675 30.9231C61.5864 30.944 61.601 30.9685 61.6105 30.9951C61.62 31.0217 61.6243 31.05 61.623 31.0783C61.6229 31.1374 61.6009 31.1944 61.5611 31.2378C61.5434 31.2577 61.5216 31.2735 61.4974 31.2843C61.4731 31.2951 61.4469 31.3005 61.4204 31.3003H60.7315L60.7166 31.9945L61.5462 31.9923Z" fill="#4A3024"/>
<path d="M66.4323 32.2076C66.4323 32.2695 66.4086 32.329 66.3662 32.3736C66.3465 32.395 66.3228 32.4122 66.2964 32.424C66.27 32.4359 66.2415 32.4422 66.2126 32.4426H63.8176C63.789 32.4428 63.7606 32.4368 63.7344 32.4249C63.7083 32.413 63.685 32.3955 63.6662 32.3736C63.6279 32.327 63.6075 32.2681 63.6086 32.2076L63.6577 29.9763C63.6576 29.9455 63.6636 29.9149 63.6753 29.8864C63.687 29.8579 63.7042 29.8321 63.7259 29.8104C63.746 29.7891 63.7702 29.7722 63.7969 29.7607C63.8237 29.7492 63.8525 29.7433 63.8816 29.7435C63.9098 29.743 63.9378 29.7488 63.9635 29.7603C63.9893 29.7718 64.0123 29.7889 64.0309 29.8104C64.0519 29.8322 64.068 29.8583 64.0783 29.8869C64.0886 29.9155 64.0928 29.946 64.0906 29.9763L64.0458 32.0006H64.8093L64.8541 29.9763C64.8533 29.9137 64.8771 29.8532 64.9202 29.8082C64.9403 29.7869 64.9644 29.77 64.9912 29.7585C65.018 29.747 65.0468 29.7412 65.0759 29.7414C65.1044 29.7408 65.1327 29.7465 65.1588 29.7581C65.1849 29.7696 65.2083 29.7867 65.2273 29.8082C65.2674 29.8538 65.2888 29.9132 65.287 29.9742L65.2422 32.0006H66.0036L66.0484 29.9742C66.0483 29.9433 66.0543 29.9128 66.066 29.8843C66.0777 29.8558 66.0949 29.8299 66.1166 29.8082C66.1367 29.7869 66.1609 29.77 66.1876 29.7585C66.2144 29.747 66.2432 29.7412 66.2723 29.7414C66.3005 29.7409 66.3285 29.7466 66.3543 29.7581C66.38 29.7697 66.403 29.7868 66.4216 29.8082C66.4426 29.83 66.4588 29.8561 66.4691 29.8847C66.4793 29.9133 66.4835 29.9438 66.4813 29.9742L66.4323 32.2076Z" fill="#4A3024"/>
<path d="M68.4712 29.9678C68.4716 29.906 68.4952 29.8467 68.5373 29.8018C68.5576 29.7803 68.5821 29.7632 68.6093 29.7517C68.6365 29.7402 68.6657 29.7345 68.6951 29.735C68.7233 29.7345 68.7513 29.7402 68.7771 29.7518C68.8028 29.7633 68.8258 29.7804 68.8444 29.8018C68.8849 29.8472 68.9063 29.9068 68.9041 29.9678L68.8871 30.6728C68.9811 30.6598 69.0758 30.6533 69.1707 30.6534C69.2951 30.6432 69.4203 30.6582 69.5389 30.6974C69.6575 30.7367 69.7673 30.7994 69.8617 30.8819C69.9392 30.967 69.9982 31.0675 70.035 31.177C70.0717 31.2866 70.0853 31.4027 70.0749 31.5179C70.078 31.6441 70.0545 31.7695 70.006 31.8858C69.9575 32.0022 69.885 32.1068 69.7934 32.1926C69.5804 32.3691 69.3092 32.4577 69.0342 32.4405H68.6269C68.598 32.4393 68.5698 32.4322 68.5437 32.4196C68.5177 32.407 68.4945 32.3892 68.4755 32.3672C68.4551 32.3455 68.4395 32.3197 68.4296 32.2914C68.4197 32.2632 68.4157 32.2333 68.4179 32.2034L68.4712 29.9678ZM68.8593 31.99L69.0982 32.0008C69.4394 32.0008 69.6143 31.8434 69.6228 31.5286C69.6285 31.4678 69.6196 31.4065 69.597 31.3499C69.5744 31.2932 69.5386 31.2429 69.4927 31.2031C69.387 31.1241 69.2572 31.0852 69.1259 31.0932C69.0432 31.0952 68.9606 31.1017 68.8785 31.1126L68.8593 31.99Z" fill="#4A3024"/>
<path d="M54.2227 17.061C53.9071 17.4124 52.7938 19.2901 52.1029 20.9415C51.7936 19.1888 51.1026 17.1343 50.8552 16.7269C49.9275 16.1793 48.1681 16.0349 47.1636 16.5393C47.4025 19.2987 46.993 23.0994 46.1719 25.7554C46.6014 26.047 47.0979 26.2222 47.6136 26.2641C48.4901 26.3654 48.7375 26.2124 49.0425 26.1111C49.2359 25.3602 49.3904 24.5996 49.5053 23.8324C49.662 22.7994 49.7546 21.7576 49.7825 20.7129C50.1451 21.4265 50.578 23.1447 50.8126 24.3778C51.072 24.59 51.3885 24.7185 51.7211 24.7464C52.0429 24.7716 52.3654 24.7067 52.6531 24.5589C53.1415 23.4012 53.9327 21.8016 54.4402 21.1764C54.2468 22.2029 54.1158 23.2403 54.0478 24.2829C53.9956 25.0557 53.9849 25.8308 54.0158 26.6047C54.291 26.7643 54.5021 26.9605 55.3807 27.0359C55.8968 27.0957 56.4194 27.0215 56.8992 26.8203C56.6497 24.0587 57.0719 20.2602 57.893 17.6064C57.0144 16.9015 55.2592 16.7075 54.2227 17.061Z" fill="#4A3024"/>
<path d="M34.453 15.7608C33.9524 15.4728 33.3908 15.3103 32.8152 15.2871C32.2397 15.2638 31.667 15.3804 31.1453 15.6271C30.9641 16.8413 30.8509 18.0649 30.8062 19.292C30.2815 19.3822 29.7475 19.404 29.2174 19.3566C29.1994 18.1183 29.1139 16.8819 28.9614 15.653C28.4323 15.4198 27.8557 15.3177 27.2796 15.3552C26.7035 15.3927 26.1446 15.5687 25.6494 15.8686C26.1634 18.6215 26.1207 22.4933 25.5428 25.2614C26.0146 25.4995 26.5361 25.6193 27.0634 25.6106C27.6751 25.626 28.2836 25.5168 28.8527 25.2894C29.033 24.0838 29.1462 22.8689 29.1918 21.6504C29.7164 21.5545 30.2538 21.5545 30.7785 21.6504C30.7969 22.8595 30.883 24.0665 31.0365 25.2657C31.6053 25.4793 32.2114 25.5725 32.8173 25.5395C33.3506 25.5333 33.8748 25.3988 34.3464 25.1471C33.8196 22.4006 33.8772 18.5267 34.453 15.7608Z" fill="#4A3024"/>
<path d="M42.3054 15.4745C41.6955 15.0433 40.8957 14.8773 40.1195 14.8277C38.7012 14.7587 37.8205 15.0282 37.1871 15.7267C36.447 16.5373 36.1783 17.6475 36.093 18.6952C35.9416 20.6074 36.7328 21.9289 37.9143 22.5627C37.249 24.0776 36.3347 25.4677 35.2101 26.6738C35.5305 27.1006 35.9242 27.4657 36.3724 27.7517C36.8728 28.0922 37.4214 28.3539 37.9996 28.5278C38.5777 27.8382 39.1031 27.1053 39.5714 26.3354L40.4074 24.8479C40.6953 24.2852 40.9533 23.7161 41.1773 23.1556C41.141 24.4189 41.1197 25.9171 41.1773 26.7622C41.752 27.0255 42.374 27.1671 43.0049 27.1783C43.5564 27.2117 44.1078 27.1111 44.613 26.8851C44.2419 23.9855 44.63 18.803 45.402 15.9703C44.9524 15.6654 44.4425 15.4631 43.9078 15.3775C43.373 15.2919 42.8263 15.325 42.3054 15.4745ZM41.3457 17.1021C41.4626 17.1107 41.5787 17.1273 41.6934 17.1517C41.5782 17.8695 41.4801 18.6133 41.4033 19.37L41.2775 21.0946C41.1474 21.1116 41.0161 21.1166 40.8851 21.1097C39.6375 21.0364 38.8783 20.366 38.9657 19.0164C39.0531 17.6669 40.0981 17.0309 41.3457 17.1021Z" fill="#4A3024"/>
<path d="M72.0517 19.4883C72.0517 19.4107 71.928 19.4086 71.8214 19.4237C71.6745 19.4521 71.5314 19.4977 71.3949 19.5595C71.1453 19.6651 69.194 20.3054 68.1788 23.8366C67.5796 25.9126 65.2891 26.0592 63.5168 25.2896C61.7446 24.52 61.3437 21.7066 62.265 19.857C62.5081 19.3698 62.7619 19.0658 63.0242 18.9365C63.0905 18.8769 63.1692 18.833 63.2544 18.808C63.3396 18.7831 63.4293 18.7776 63.5168 18.792C64.323 18.9278 64.1119 20.6589 64.0649 21.1181C64.2974 21.3984 64.9649 21.8209 66.1699 21.6312C67.3002 21.4523 67.7608 20.9845 67.7416 20.6007C67.6649 19.0442 67.5284 18.7683 67.0187 18.1841C66.2338 17.2679 64.9287 16.938 63.6832 16.8647C61.8832 16.7763 60.77 17.117 59.966 18.003C59.0276 19.0291 58.6864 20.4369 58.5776 21.7649C58.3643 24.5329 59.6973 26.5378 61.5633 27.2298C62.4996 27.6459 65.3914 28.6893 68.3878 27.0142C70.7146 25.7078 71.3735 23.3494 71.5356 21.7886C71.6081 21.1548 72.0304 19.8742 72.0517 19.4883Z" fill="#4A3024"/>
<path d="M71.2818 20.1353C70.7593 20.297 70.2816 20.8445 69.9297 21.2735C69.5275 21.7489 69.2283 22.3041 69.051 22.9033C68.8122 23.7656 69.5714 23.4531 69.6908 23.2526C69.7121 23.2138 69.3048 23.203 69.324 23.2526C69.5373 23.6837 69.6951 23.6104 69.9638 23.1081C69.9664 23.1002 69.9709 23.093 69.9769 23.0871C69.9829 23.0813 69.9902 23.0771 69.9981 23.0747C70.0061 23.0724 70.0145 23.0721 70.0227 23.0737C70.0308 23.0754 70.0384 23.0791 70.0448 23.0844C70.1179 23.1687 70.162 23.2745 70.1707 23.3862L70.1963 23.5587C70.2134 23.5161 70.2341 23.475 70.2581 23.4358C70.2655 23.4264 70.2757 23.4196 70.2873 23.4165C70.2988 23.4134 70.311 23.4141 70.3221 23.4186C70.5545 23.5565 70.2602 24.3434 70.4415 23.9726C70.5764 23.6927 70.6843 23.4003 70.7635 23.0995C71.0067 22.1833 71.2093 21.252 71.4567 20.3336C71.4929 20.1806 71.4268 20.0943 71.2818 20.1353Z" fill="white"/>
<path d="M24.5575 16.8367C24.8092 14.3403 24.7708 12.5984 24.4424 11.5205C24.2035 10.7272 23.9412 10.3111 23.7215 10.1236C23.6582 10.0696 23.5839 10.0303 23.504 10.0083C23.4241 9.98636 23.3404 9.98228 23.2587 9.99638C21.301 10.3241 18.7439 15.5713 18.2982 16.5155C17.5992 17.9014 17.2146 19.4273 17.1721 20.9823V20.9694V21.0039V20.978C16.8876 19.8907 16.4998 18.8338 16.0141 17.8219C15.2506 15.6295 12.3694 11.7598 11.2348 11.0463C10.5396 10.6151 10.0704 10.4728 9.78248 10.4793C9.69959 10.4786 9.61772 10.4978 9.54358 10.5352C9.46944 10.5727 9.40514 10.6274 9.35595 10.6949C8.18085 12.4087 10.5374 25.8954 10.1962 28.3056C10.6003 28.4672 11.0287 28.5584 11.463 28.575C11.6717 28.5902 11.8813 28.5902 12.09 28.575C13.1286 28.5104 13.472 28.3099 13.8068 28.1159L13.8708 28.0124C13.9697 27.0038 14.0159 25.9906 14.0094 24.977C14.0024 23.5353 13.9077 22.0954 13.7258 20.6654L13.6447 19.9756L14.0414 20.5167C14.6812 21.379 15.6217 23.5348 16.2423 25.2594C16.5027 25.3965 16.7893 25.4751 17.0826 25.4901C17.5954 25.5191 18.1028 25.3717 18.5221 25.0719C18.9785 23.2718 19.7185 20.9759 20.2709 20.0252L20.6142 19.4237L20.5972 20.1222C20.5479 21.5647 20.5864 23.0089 20.7123 24.4467C20.7994 25.4735 20.9418 26.4947 21.1389 27.5058C21.4383 27.6418 21.7601 27.7207 22.0879 27.7386C22.3726 27.7503 22.6577 27.741 22.941 27.7106C23.5922 27.6616 24.2248 27.4688 24.7942 27.1458C24.4573 23.5326 24.308 20.5425 24.5575 16.8367Z" fill="#4A3024"/>
<path d="M22.1965 16.5608C22.3527 16.6068 22.5171 16.617 22.6777 16.5907C22.8383 16.5644 22.9911 16.5022 23.1249 16.4086C23.2587 16.3151 23.3702 16.1925 23.4513 16.0499C23.5323 15.9073 23.5809 15.7482 23.5934 15.5842C23.6826 14.6537 23.6395 13.715 23.4655 12.7968C23.4104 12.4907 23.2611 12.21 23.0389 11.9948C23.003 11.9634 22.9607 11.9404 22.915 11.9274C22.8693 11.9143 22.8213 11.9116 22.7745 11.9194C21.9641 12.0638 21.0214 13.7561 20.4733 14.8879C20.4141 15.011 20.3818 15.1455 20.3787 15.2824C20.3756 15.4192 20.4018 15.5551 20.4554 15.6808C20.5091 15.8065 20.589 15.919 20.6896 16.0106C20.7902 16.1022 20.9092 16.1707 21.0385 16.2116L22.1965 16.5608Z" fill="white"/>
<path d="M11.7999 16.8605C11.6511 16.9274 11.4894 16.9598 11.3266 16.9555C11.1638 16.9513 11.0039 16.9104 10.8587 16.8359C10.7135 16.7613 10.5865 16.655 10.4871 16.5247C10.3876 16.3943 10.3181 16.2432 10.2836 16.0823C10.0726 15.1724 9.99073 14.2367 10.0405 13.3035C10.0548 12.9888 10.1676 12.6869 10.3625 12.4411C10.3939 12.4051 10.4326 12.3764 10.4761 12.357C10.5196 12.3376 10.5667 12.3281 10.6142 12.329C11.4374 12.3635 12.5975 13.9114 13.2907 14.9591C13.3657 15.0728 13.4156 15.2016 13.4369 15.3366C13.4581 15.4716 13.4502 15.6097 13.4138 15.7414C13.3773 15.873 13.3131 15.9951 13.2256 16.0994C13.1381 16.2036 13.0294 16.2875 12.9068 16.3453L11.7999 16.8605Z" fill="white"/>
</g>
<defs>
<linearGradient id="paint0_linear_156_492" x1="33.642" y1="47.8562" x2="43.1586" y2="1.72535" gradientUnits="userSpaceOnUse">
<stop stop-color="#A14B20"/>
<stop offset="0.07" stop-color="#AF6223"/>
<stop offset="0.19" stop-color="#C58527"/>
<stop offset="0.32" stop-color="#D6A22B"/>
<stop offset="0.45" stop-color="#E4B92E"/>
<stop offset="0.6" stop-color="#EEC92F"/>
<stop offset="0.77" stop-color="#F3D231"/>
<stop offset="1" stop-color="#F5D531"/>
</linearGradient>
<clipPath id="clip0_156_492">
<rect width="79" height="52" fill="white"/>
</clipPath>
</defs>
</svg>
