<svg width="124" height="42" viewBox="0 0 124 42" fill="none" xmlns="http://www.w3.org/2000/svg">
<g clip-path="url(#clip0_156_539)">
<path fill-rule="evenodd" clip-rule="evenodd" d="M96.0643 7.84793L96.9065 6.62644L98.4443 6.44992L97.4705 5.32021L97.7637 3.89043L96.32 4.41292L94.9626 3.70685L95.0454 5.16135L93.9137 6.15337L95.4101 6.53112L96.0643 7.84793ZM27.8192 26.9718H23.1344L20.9274 7.18776C20.9274 6.42521 20.6416 5.77563 20.0739 5.23902C19.5024 4.70241 18.8106 4.43763 17.9984 4.43763C17.1825 4.43763 16.4907 4.70594 15.923 5.23902C15.3778 5.74738 15.1071 6.38637 15.1071 7.14893V26.9223H10.4223V7.14893C10.4223 6.41109 10.1403 5.77563 9.56507 5.23902C9.02365 4.70241 8.35816 4.43763 7.56859 4.43763C6.7527 4.43763 6.06089 4.70594 5.49315 5.23902C4.95173 5.74738 4.68102 6.38637 4.68102 7.14893V26.9223H0V0H4.68478V0.571914C5.60594 0.21535 6.56847 0.0353033 7.57235 0.0353033C9.58011 0.0353033 11.3059 0.699006 12.7421 2.02288C14.2047 0.695476 15.9568 0.0353033 17.9947 0.0353033C20.1115 0.0353033 21.9049 0.73784 23.3675 2.13938C24.8602 3.51621 25.6084 5.19665 25.6084 7.18423L27.8192 26.9718ZM47.7351 16.0489C47.7351 14.1249 47.017 12.4903 45.5882 11.1453C44.1557 9.77903 42.4149 9.09414 40.3696 9.09414C38.2979 9.09414 36.542 9.7649 35.1133 11.11C33.6808 12.455 32.9664 14.1002 32.9664 16.0489C32.9664 17.9976 33.6808 19.6392 35.1133 20.9843C36.542 22.3047 38.2979 22.9648 40.3696 22.9648C42.4187 22.9648 44.1557 22.2941 45.5882 20.949C47.017 19.6039 47.7351 17.9694 47.7351 16.0489ZM51.9875 16.0489C51.9875 19.085 50.852 21.6657 48.5811 23.798C46.3327 25.9303 43.5955 26.9965 40.362 26.9965C37.1286 26.9965 34.3764 25.9303 32.1054 23.798C29.8344 21.6657 28.699 19.0815 28.699 16.0489C28.699 13.0128 29.8344 10.4286 32.1054 8.29629C34.3764 6.16396 37.1286 5.0978 40.362 5.0978C43.5955 5.0978 46.3327 6.16396 48.5811 8.29629C50.8558 10.4286 51.9875 13.0128 51.9875 16.0489ZM73.7984 26.9259H69.5423V14.5167C69.5423 13.034 68.9745 11.7595 67.8391 10.6934C66.7299 9.62722 65.3839 9.09414 63.8047 9.09414C62.203 9.09414 60.8307 9.62722 59.6952 10.6934C58.5861 11.7348 58.0296 13.0093 58.0296 14.5167V26.9259H53.7734V5.0625H58.0296V6.83826C59.7591 5.67678 61.6804 5.0978 63.8047 5.0978C66.5945 5.0978 68.952 6.01569 70.877 7.8444C72.8284 9.67665 73.8022 11.8972 73.8022 14.5203V26.9259H73.7984ZM98.8579 16.0489C98.8579 19.085 97.7261 21.6657 95.4552 23.798C93.2106 25.9303 90.4696 26.9965 87.2361 26.9965C84.0064 26.9965 81.2505 25.9303 78.9795 23.798C76.7086 21.6657 75.5731 19.0815 75.5731 16.0489C75.5731 13.0128 76.7086 10.4286 78.9795 8.29629C81.2505 6.16396 84.0027 5.0978 87.2361 5.0978C90.6915 5.0978 93.7031 6.52406 96.2673 9.37657L92.5676 11.4948C90.9885 9.89553 89.2101 9.09767 87.2361 9.09767C85.1645 9.09767 83.4124 9.76844 81.9799 11.1135C80.5474 12.4586 79.8292 14.1037 79.8292 16.0524C79.8292 18.0012 80.5474 19.6428 81.9799 20.9878C83.4124 22.3082 85.1607 22.9684 87.2361 22.9684C88.8679 22.9684 90.3343 22.5165 91.6427 21.6127C92.9474 20.6842 93.8385 19.491 94.3084 18.0294H85.4239V14.0295H98.8616V16.0489H98.8579ZM119.368 14.0295C118.902 12.568 118.011 11.3889 116.706 10.4851C115.397 9.55662 113.931 9.09414 112.299 9.09414C110.668 9.09414 109.19 9.55662 107.859 10.4851C106.551 11.3889 105.663 12.568 105.193 14.0295H119.368ZM123.921 18.0294H105.189C105.659 19.5122 106.547 20.7054 107.855 21.6127C109.164 22.5165 110.645 22.9684 112.296 22.9684C114.27 22.9684 116.037 22.1917 117.589 20.6419L121.327 22.6895C118.759 25.5632 115.747 27 112.292 27C109.058 27 106.306 25.9338 104.035 23.8015C101.764 21.6692 100.629 19.085 100.629 16.0524C100.629 13.0163 101.764 10.4321 104.035 8.29982C106.306 6.16749 109.058 5.10133 112.292 5.10133C115.525 5.10133 118.266 6.16749 120.511 8.29982C122.782 10.4321 123.917 13.0163 123.917 16.0524V18.0294H123.921ZM88.6198 4.15873L87.2136 3.54446L85.8112 4.15873L85.9992 2.71483L84.9426 1.64867L86.4654 1.36977L87.2136 0.0988494L87.9656 1.36977L89.4845 1.64867L88.428 2.71483L88.6198 4.15873ZM82.0851 5.40494L81.5813 4.02811L80.1375 3.50562L81.3745 2.6301L81.4573 1.1756L82.7281 2.01229L84.2245 1.63808L83.7733 3.02903L84.6193 4.25052L83.0702 4.27524L82.0851 5.40494ZM78.3967 7.84793L77.5545 6.62644L76.0167 6.44992L76.9905 5.32021L76.6935 3.89043L78.1411 4.41292L79.4984 3.70685L79.4194 5.16135L80.5511 6.15337L79.0547 6.53112L78.3967 7.84793ZM92.3721 5.40494L92.8759 4.02811L94.3197 3.50562L93.0865 2.6301L93.0038 1.1756L91.7367 2.01229L90.2403 1.63808L90.6915 3.02903L89.8493 4.25052L91.3983 4.27524L92.3721 5.40494ZM122.616 3.99281C121.958 3.99281 121.428 4.49412 121.428 5.11192C121.428 5.72973 121.958 6.22751 122.616 6.22751C123.274 6.22751 123.808 5.7262 123.808 5.11192C123.804 4.49412 123.271 3.99281 122.616 3.99281ZM122.616 3.80923C123.38 3.80923 124 4.39174 124 5.10839C124 5.82858 123.38 6.41109 122.616 6.41109C121.853 6.41109 121.229 5.82858 121.229 5.10839C121.229 4.39174 121.849 3.80923 122.616 3.80923ZM123.319 5.86742H122.91L122.458 5.42259C122.406 5.37317 122.38 5.32021 122.38 5.27432C122.38 5.23196 122.395 5.19665 122.425 5.17547C122.455 5.15076 122.5 5.14017 122.556 5.13664C122.71 5.12605 122.827 5.09427 122.906 5.04838C122.981 4.99895 123.022 4.92482 123.022 4.8295C123.022 4.73771 122.992 4.67063 122.932 4.62474C122.876 4.57884 122.793 4.55766 122.684 4.55766H122.361V5.86742H122.064V4.2823H122.692C122.782 4.2823 122.865 4.29289 122.94 4.3176C123.019 4.33878 123.086 4.37408 123.143 4.41998C123.203 4.46587 123.248 4.52236 123.282 4.58944C123.316 4.65651 123.331 4.73418 123.331 4.82244C123.331 4.87539 123.323 4.92835 123.304 4.98836C123.289 5.04485 123.259 5.09427 123.218 5.1437C123.177 5.18959 123.124 5.23549 123.056 5.27432C122.992 5.30962 122.906 5.33434 122.808 5.35199L123.319 5.86742Z" fill="#003569"/>
<path d="M1.23554 30.9102L6.60994 38.3201H6.63618V30.9102H7.51318V39.6689H6.53124L1.15683 32.259H1.1306V39.6689H0.253601V30.9102H1.23554Z" fill="#6D6E71"/>
<path d="M9.37619 34.3196C9.51486 34.0491 9.70226 33.8284 9.93837 33.6576C10.1745 33.4868 10.4518 33.3586 10.7704 33.2768C11.089 33.1949 11.4413 33.1558 11.831 33.1558C12.1234 33.1558 12.4157 33.1807 12.7118 33.2341C13.0041 33.2874 13.2665 33.3871 13.4988 33.5366C13.7312 33.6825 13.9223 33.8889 14.0685 34.1559C14.2147 34.4228 14.2896 34.768 14.2896 35.1915V38.5548C14.2896 38.8645 14.447 39.0211 14.7693 39.0211C14.863 39.0211 14.9492 39.0033 15.0279 38.9712V39.6225C14.9342 39.6403 14.848 39.651 14.7768 39.6581C14.7019 39.6652 14.6119 39.6688 14.4995 39.6688C14.2934 39.6688 14.1285 39.6439 14.001 39.5905C13.8774 39.5371 13.7799 39.4624 13.7087 39.3627C13.6412 39.2631 13.5925 39.1492 13.5738 39.0139C13.5513 38.8787 13.54 38.7292 13.54 38.5655H13.5138C13.3676 38.7684 13.2177 38.9534 13.0678 39.11C12.9179 39.2702 12.7493 39.4019 12.5656 39.5086C12.382 39.6154 12.1683 39.6973 11.9322 39.7542C11.6961 39.8112 11.415 39.8396 11.0852 39.8396C10.7741 39.8396 10.4856 39.804 10.212 39.7364C9.94212 39.6688 9.70226 39.5585 9.49987 39.4054C9.29749 39.256 9.13633 39.0602 9.02015 38.8289C8.90397 38.5975 8.84775 38.3199 8.84775 37.9996C8.84775 37.5583 8.95269 37.2131 9.15882 36.9639C9.36495 36.7148 9.63854 36.5262 9.9796 36.3945C10.3206 36.2628 10.7029 36.1703 11.1302 36.1169C11.5574 36.0635 11.9884 36.0137 12.4269 35.9638C12.5993 35.946 12.7493 35.9283 12.8804 35.9033C13.0079 35.8784 13.1165 35.8357 13.2027 35.7752C13.2889 35.7147 13.3564 35.6293 13.4014 35.5225C13.4501 35.4157 13.4726 35.2769 13.4726 35.1061C13.4726 34.8427 13.4276 34.6292 13.3377 34.4619C13.2477 34.2947 13.124 34.163 12.9629 34.0633C12.8017 33.9637 12.6181 33.896 12.4082 33.8605C12.1983 33.8249 11.9697 33.8071 11.7298 33.8071C11.2126 33.8071 10.7891 33.9245 10.4631 34.1559C10.137 34.3872 9.9646 34.7644 9.94587 35.2769H9.13258C9.15507 34.9104 9.23752 34.5901 9.37619 34.3196ZM13.4464 36.2094C13.3939 36.2984 13.2964 36.366 13.1503 36.4052C13.0041 36.4443 12.8729 36.4728 12.7642 36.4906C12.4194 36.5475 12.0634 36.5974 11.6999 36.6436C11.3326 36.6899 10.999 36.7575 10.6992 36.8465C10.3994 36.9355 10.152 37.0671 9.95711 37.2344C9.76222 37.4017 9.66478 37.6402 9.66478 37.9533C9.66478 38.1491 9.706 38.3235 9.78846 38.4765C9.87091 38.6296 9.9796 38.7577 10.1183 38.868C10.2569 38.9783 10.4143 39.0638 10.598 39.1207C10.7779 39.1777 10.9653 39.2061 11.1527 39.2061C11.4637 39.2061 11.7598 39.1599 12.0447 39.0709C12.3295 38.9819 12.5769 38.8502 12.7867 38.6794C12.9966 38.5086 13.1653 38.2986 13.2927 38.053C13.4164 37.8074 13.4801 37.5298 13.4801 37.2202V36.213H13.4464V36.2094Z" fill="#6D6E71"/>
<path d="M18.5623 33.341V33.9923H17.2055V38.2631C17.2055 38.5158 17.243 38.7151 17.3142 38.8575C17.3892 38.9998 17.5691 39.0817 17.8614 39.0959C18.0938 39.0959 18.3261 39.0817 18.5585 39.0603V39.7116C18.4386 39.7116 18.3187 39.7152 18.195 39.7223C18.075 39.7294 17.9551 39.7365 17.8352 39.7365C17.2917 39.7365 16.9132 39.6369 16.6996 39.4376C16.4822 39.2383 16.381 38.8681 16.3885 38.3272V33.9887H15.2267V33.3374H16.3885V31.4369H17.2018V33.3374H18.5623V33.341Z" fill="#6D6E71"/>
<path d="M24.3857 39.6687V38.5262H24.3595C24.1459 38.9533 23.831 39.2772 23.4225 39.5014C23.014 39.7256 22.5605 39.8395 22.0583 39.8395C21.6348 39.8395 21.275 39.7825 20.9789 39.6758C20.6829 39.5654 20.4393 39.4088 20.2556 39.2024C20.0682 38.9996 19.9333 38.7469 19.8471 38.455C19.7609 38.1596 19.7197 37.8251 19.7197 37.4478V33.3407H20.5329V37.4621C20.5517 38.0351 20.6904 38.4693 20.9527 38.7611C21.2151 39.0565 21.6685 39.2024 22.3169 39.2024C22.6692 39.2024 22.9728 39.1312 23.2201 38.9889C23.4713 38.8465 23.6774 38.6543 23.8385 38.4194C24.0034 38.181 24.1234 37.9105 24.2021 37.6044C24.2808 37.2983 24.3183 36.9851 24.3183 36.6648V33.3407H25.1315V39.6722H24.3857V39.6687Z" fill="#6D6E71"/>
<path d="M27.4257 33.3409V34.825H27.4519C27.6581 34.309 27.9804 33.9139 28.4151 33.6363C28.8499 33.3587 29.3671 33.2306 29.9705 33.2555V34.0278C29.5994 34.01 29.2659 34.0598 28.9623 34.1702C28.6587 34.2805 28.4001 34.4371 28.179 34.6435C27.9579 34.8464 27.7892 35.0919 27.6693 35.3731C27.5494 35.6543 27.4894 35.9639 27.4894 36.2985V39.6724H26.6761V33.3409H27.4257Z" fill="#6D6E71"/>
<path d="M30.9111 34.3196C31.0498 34.0491 31.2372 33.8284 31.4733 33.6576C31.7094 33.4868 31.9868 33.3586 32.3053 33.2768C32.6239 33.1949 32.9762 33.1558 33.366 33.1558C33.6583 33.1558 33.9506 33.1807 34.243 33.2341C34.5353 33.2874 34.7977 33.3871 35.03 33.5366C35.2624 33.6825 35.4535 33.8889 35.5997 34.1559C35.7459 34.4228 35.8208 34.768 35.8208 35.1915V38.5548C35.8208 38.8645 35.9782 39.0211 36.3005 39.0211C36.3942 39.0211 36.4804 39.0033 36.5591 38.9712V39.6225C36.4654 39.6403 36.3792 39.651 36.308 39.6581C36.2368 39.6652 36.1431 39.6688 36.0307 39.6688C35.8246 39.6688 35.6597 39.6439 35.5322 39.5905C35.4085 39.5371 35.3111 39.4624 35.2399 39.3627C35.1724 39.2631 35.1275 39.1492 35.105 39.0139C35.0825 38.8787 35.0712 38.7292 35.0712 38.5655H35.045C34.8988 38.7684 34.7489 38.9534 34.599 39.11C34.4491 39.2702 34.2805 39.4019 34.0931 39.5086C33.9094 39.6154 33.6958 39.6973 33.4597 39.7542C33.2236 39.8112 32.9387 39.8396 32.6127 39.8396C32.3016 39.8396 32.013 39.804 31.7394 39.7364C31.4696 39.6688 31.2297 39.5585 31.0273 39.4054C30.8249 39.256 30.6675 39.0602 30.5476 38.8289C30.4314 38.5975 30.3715 38.3199 30.3715 37.9996C30.3715 37.5583 30.4764 37.2131 30.6825 36.9639C30.8887 36.7148 31.1623 36.5262 31.5033 36.3945C31.8444 36.2628 32.2266 36.1703 32.6539 36.1169C33.0811 36.0635 33.5121 36.0137 33.9506 35.9638C34.123 35.946 34.273 35.9283 34.4041 35.9033C34.5316 35.8784 34.6402 35.8357 34.7264 35.7752C34.8126 35.7147 34.8801 35.6293 34.9251 35.5225C34.9738 35.4157 34.9963 35.2769 34.9963 35.1061C34.9963 34.8427 34.9513 34.6292 34.8614 34.4619C34.7714 34.2947 34.6477 34.163 34.4866 34.0633C34.3254 33.9637 34.1418 33.896 33.9319 33.8605C33.722 33.8249 33.4934 33.8071 33.2535 33.8071C32.7363 33.8071 32.3128 33.9245 31.9868 34.1559C31.6607 34.3872 31.4883 34.7644 31.4696 35.2769H30.6563C30.6938 34.9104 30.7762 34.5901 30.9111 34.3196ZM34.9813 36.2094C34.9288 36.2984 34.8314 36.366 34.6852 36.4052C34.5391 36.4443 34.4079 36.4728 34.2992 36.4906C33.9544 36.5475 33.5983 36.5974 33.2348 36.6436C32.8675 36.6899 32.534 36.7575 32.2341 36.8465C31.9306 36.9355 31.6832 37.0671 31.4921 37.2344C31.2972 37.4017 31.1997 37.6402 31.1997 37.9533C31.1997 38.1491 31.241 38.3235 31.3234 38.4765C31.4059 38.6296 31.5145 38.7577 31.6532 38.868C31.7919 38.9783 31.9493 39.0638 32.1292 39.1207C32.3091 39.1777 32.4965 39.2061 32.6839 39.2061C32.9949 39.2061 33.291 39.1599 33.5759 39.0709C33.8607 38.9819 34.1081 38.8502 34.3179 38.6794C34.5278 38.5086 34.6965 38.2986 34.8201 38.053C34.9438 37.8074 35.0075 37.5298 35.0075 37.2202V36.213H34.9813V36.2094Z" fill="#6D6E71"/>
<path d="M38.2757 30.9102V39.6689H37.4624V30.9102H38.2757Z" fill="#6D6E71"/>
<path d="M44.2198 37.9142C44.3734 38.2167 44.5871 38.4587 44.8607 38.6367C45.1305 38.8182 45.4528 38.9463 45.8238 39.0246C46.1949 39.1029 46.5922 39.1421 47.0119 39.1421C47.2518 39.1421 47.5141 39.11 47.799 39.0424C48.0838 38.9784 48.3499 38.8716 48.5935 38.7292C48.8371 38.5869 49.0432 38.4018 49.2082 38.1776C49.3731 37.9534 49.4555 37.6793 49.4555 37.3626C49.4555 37.117 49.3955 36.9034 49.2794 36.7255C49.1632 36.5475 49.0133 36.3945 48.8259 36.2735C48.6422 36.1525 48.4361 36.0493 48.2112 35.971C47.9864 35.8927 47.769 35.8286 47.5516 35.7823L45.4978 35.3054C45.2317 35.2414 44.9693 35.1595 44.7145 35.0599C44.4596 34.9602 44.2385 34.8321 44.0474 34.6684C43.8562 34.5047 43.7063 34.3053 43.5901 34.0669C43.474 33.8284 43.4177 33.5402 43.4177 33.1949C43.4177 32.9814 43.459 32.7323 43.5452 32.4475C43.6314 32.1628 43.7925 31.8923 44.0286 31.6361C44.2647 31.3834 44.5908 31.1698 45.0031 30.9919C45.4153 30.8175 45.9475 30.7285 46.5922 30.7285C47.0494 30.7285 47.4841 30.7855 47.8964 30.8994C48.3087 31.0132 48.6722 31.1841 48.9833 31.4154C49.2944 31.6432 49.5417 31.9279 49.7254 32.2696C49.909 32.6077 50.0027 33.0027 50.0027 33.4547H49.1257C49.107 33.1202 49.0283 32.8283 48.8858 32.5792C48.7434 32.3301 48.5598 32.1201 48.3312 31.9528C48.1025 31.7856 47.8402 31.6574 47.5441 31.572C47.248 31.4866 46.9332 31.4439 46.6072 31.4439C46.3073 31.4439 46.015 31.4759 45.7339 31.5364C45.4528 31.5969 45.2092 31.6966 44.9993 31.8318C44.7894 31.9671 44.617 32.145 44.4896 32.3657C44.3622 32.5863 44.2947 32.8604 44.2947 33.1878C44.2947 33.3942 44.3322 33.5722 44.4034 33.7217C44.4784 33.8747 44.5796 34.0028 44.707 34.1096C44.8344 34.2164 44.9843 34.3018 45.153 34.3659C45.3216 34.4299 45.5015 34.4833 45.6889 34.526L47.9376 35.0527C48.2637 35.1346 48.5748 35.2343 48.8634 35.3517C49.1519 35.4692 49.4068 35.6186 49.6242 35.793C49.8453 35.9674 50.0139 36.1845 50.1414 36.4372C50.265 36.6899 50.3288 36.9995 50.3288 37.359C50.3288 37.4587 50.3175 37.5868 50.295 37.7505C50.2725 37.9142 50.2201 38.0886 50.1414 38.2737C50.0589 38.4587 49.9427 38.6438 49.7928 38.8324C49.6429 39.0211 49.4368 39.1919 49.1744 39.3414C48.9121 39.4944 48.586 39.6154 48.2 39.708C47.814 39.8005 47.3455 39.8503 46.8058 39.8503C46.2623 39.8503 45.7601 39.7898 45.2954 39.6724C44.8307 39.5549 44.4334 39.3734 44.1073 39.1278C43.7775 38.8823 43.5264 38.5691 43.3503 38.1847C43.1741 37.8003 43.0992 37.3376 43.1254 36.7967H44.0024C43.9912 37.238 44.0661 37.6117 44.2198 37.9142Z" fill="#6D6E71"/>
<path d="M56.2199 39.6687V38.5262H56.1937C55.98 38.9533 55.6652 39.2772 55.2567 39.5014C54.8482 39.7256 54.3947 39.8395 53.8925 39.8395C53.469 39.8395 53.1092 39.7825 52.8131 39.6758C52.517 39.5654 52.2734 39.4088 52.0898 39.2024C51.9061 38.9996 51.7675 38.7469 51.6813 38.455C51.5951 38.1596 51.5538 37.8251 51.5538 37.4478V33.3407H52.3671V37.4621C52.3859 38.0351 52.5245 38.4693 52.7869 38.7611C53.0492 39.0565 53.5027 39.2024 54.1511 39.2024C54.5034 39.2024 54.807 39.1312 55.0543 38.9889C55.3054 38.8465 55.5116 38.6543 55.6727 38.4194C55.8376 38.181 55.9576 37.9105 56.0363 37.6044C56.115 37.2983 56.1524 36.9851 56.1524 36.6648V33.3407H56.9657V39.6722H56.2199V39.6687Z" fill="#6D6E71"/>
<path d="M59.26 33.3408V34.5438H59.2863C59.4774 34.1025 59.7847 33.7608 60.212 33.5188C60.6392 33.2768 61.1227 33.1558 61.6662 33.1558C62.1759 33.1558 62.6144 33.2447 62.9891 33.4262C63.3639 33.6078 63.675 33.8498 63.9261 34.1558C64.1772 34.4619 64.3609 34.8178 64.4808 35.2236C64.6007 35.6293 64.6607 36.0564 64.6607 36.5048C64.6607 36.9533 64.6007 37.3803 64.4808 37.7861C64.3609 38.1918 64.1735 38.5477 63.9261 38.8538C63.675 39.1599 63.3639 39.4019 62.9891 39.5763C62.6144 39.7542 62.1721 39.8396 61.6662 39.8396C61.4263 39.8396 61.1827 39.8112 60.9428 39.7542C60.703 39.6973 60.4781 39.6119 60.272 39.498C60.0658 39.3841 59.8822 39.2417 59.721 39.0673C59.5599 38.8965 59.4399 38.6972 59.3537 38.4658H59.3275V42H58.5142V33.3408H59.26ZM63.7237 35.5296C63.6413 35.2058 63.5139 34.9175 63.3377 34.6648C63.1616 34.4121 62.9329 34.2057 62.6593 34.0455C62.382 33.8854 62.0522 33.8071 61.6662 33.8071C61.2164 33.8071 60.8454 33.8818 60.5418 34.0277C60.2382 34.1736 59.9984 34.3694 59.8185 34.615C59.6386 34.8605 59.5112 35.1453 59.4362 35.4727C59.3612 35.8001 59.3275 36.1418 59.3275 36.5048C59.3275 36.8322 59.3687 37.1561 59.4512 37.48C59.5336 37.8039 59.6648 38.0921 59.8522 38.3448C60.0358 38.5975 60.2795 38.804 60.5755 38.9641C60.8716 39.1243 61.2352 39.2026 61.6662 39.2026C62.0522 39.2026 62.3857 39.1243 62.6593 38.9641C62.9329 38.804 63.1616 38.5975 63.3377 38.3448C63.5139 38.0921 63.645 37.8039 63.7237 37.48C63.8062 37.1561 63.8474 36.8322 63.8474 36.5048C63.8474 36.1774 63.8062 35.8535 63.7237 35.5296Z" fill="#6D6E71"/>
<path d="M66.5266 37.5796C66.609 37.8786 66.7402 38.1455 66.9201 38.384C67.1 38.6224 67.3286 38.8182 67.6022 38.9712C67.8796 39.1278 68.2094 39.2061 68.5992 39.2061C69.1951 39.2061 69.6598 39.0602 69.9934 38.7648C70.3269 38.4694 70.563 38.0779 70.6905 37.5868H71.5037C71.3313 38.3057 71.0128 38.8645 70.5555 39.2559C70.0945 39.6474 69.4424 39.8432 68.5992 39.8432C68.0745 39.8432 67.6172 39.7542 67.2349 39.5798C66.8527 39.4054 66.5378 39.1634 66.298 38.8573C66.0581 38.5513 65.8782 38.1954 65.762 37.7896C65.6458 37.3839 65.5896 36.9568 65.5896 36.5084C65.5896 36.092 65.6458 35.6827 65.762 35.2805C65.8782 34.8783 66.0581 34.5224 66.298 34.2057C66.5378 33.8925 66.8527 33.6362 67.2349 33.444C67.6172 33.2519 68.0745 33.1558 68.5992 33.1558C69.1313 33.1558 69.5886 33.259 69.9671 33.4618C70.3456 33.6683 70.653 33.9352 70.8891 34.2662C71.1252 34.5972 71.2976 34.978 71.3988 35.4086C71.5 35.8393 71.545 36.2735 71.5262 36.7148H66.4029C66.4029 36.9924 66.4441 37.2807 66.5266 37.5796ZM70.5555 35.2164C70.4543 34.946 70.3157 34.7075 70.1358 34.4975C69.9559 34.2875 69.7347 34.1203 69.4761 33.9957C69.2175 33.8676 68.9252 33.8071 68.5992 33.8071C68.2618 33.8071 67.9658 33.8711 67.7072 33.9957C67.4486 34.1238 67.2312 34.2911 67.0475 34.4975C66.8676 34.7075 66.7215 34.946 66.6165 35.22C66.5079 35.494 66.4366 35.7752 66.4029 36.0599H70.7167C70.7092 35.7681 70.6567 35.4869 70.5555 35.2164Z" fill="#6D6E71"/>
<path d="M73.3817 33.3409V34.825H73.4079C73.6141 34.309 73.9364 33.9139 74.3711 33.6363C74.8059 33.3587 75.3231 33.2306 75.9265 33.2555V34.0278C75.5555 34.01 75.2219 34.0598 74.9183 34.1702C74.6185 34.2805 74.3562 34.4371 74.135 34.6435C73.9139 34.8464 73.7453 35.0919 73.6253 35.3731C73.5054 35.6543 73.4454 35.9639 73.4454 36.2985V39.6724H72.6321V33.3409H73.3817Z" fill="#6D6E71"/>
<path d="M77.4518 33.3408V34.5438H77.4781C77.6655 34.1025 77.9765 33.7608 78.4 33.5188C78.8273 33.2768 79.3108 33.1558 79.8542 33.1558C80.3639 33.1558 80.8024 33.2447 81.1772 33.4262C81.552 33.6078 81.8631 33.8498 82.1142 34.1558C82.3653 34.4619 82.5489 34.8178 82.6688 35.2236C82.7888 35.6293 82.8487 36.0564 82.8487 36.5048C82.8487 36.9533 82.7888 37.3803 82.6688 37.7861C82.5489 38.1918 82.3615 38.5477 82.1142 38.8538C81.8631 39.1599 81.552 39.4019 81.1772 39.5763C80.8024 39.7542 80.3602 39.8396 79.8542 39.8396C79.6144 39.8396 79.3707 39.8112 79.1309 39.7542C78.891 39.6973 78.6661 39.6119 78.46 39.498C78.2539 39.3841 78.0702 39.2417 77.9091 39.0673C77.7479 38.8965 77.628 38.6972 77.5418 38.4658H77.5156V42H76.7023V33.3408H77.4518ZM81.9155 35.5296C81.8331 35.2058 81.7057 34.9175 81.5258 34.6648C81.3496 34.4121 81.1247 34.2057 80.8474 34.0455C80.5701 33.8854 80.2402 33.8071 79.8542 33.8071C79.4045 33.8071 79.0297 33.8818 78.7299 34.0277C78.43 34.1736 78.1864 34.3694 78.0065 34.615C77.8266 34.8605 77.6992 35.1453 77.6242 35.4727C77.5493 35.8001 77.5156 36.1418 77.5156 36.5048C77.5156 36.8322 77.5568 37.1561 77.6392 37.48C77.7217 37.8039 77.8529 38.0921 78.0403 38.3448C78.2239 38.5975 78.4675 38.804 78.7636 38.9641C79.0597 39.1243 79.4232 39.2026 79.8542 39.2026C80.2402 39.2026 80.5738 39.1243 80.8474 38.9641C81.1247 38.804 81.3496 38.5975 81.5258 38.3448C81.7019 38.0921 81.8331 37.8039 81.9155 37.48C81.998 37.1561 82.0392 36.8322 82.0392 36.5048C82.0355 36.1774 81.9942 35.8535 81.9155 35.5296Z" fill="#6D6E71"/>
<path d="M84.8651 33.3409V34.825H84.8913C85.0975 34.309 85.4198 33.9139 85.8545 33.6363C86.2893 33.3587 86.8102 33.2306 87.4099 33.2555V34.0278C87.0388 34.01 86.7053 34.0598 86.4017 34.1702C86.0981 34.2805 85.8395 34.4371 85.6184 34.6435C85.401 34.8464 85.2286 35.0919 85.1087 35.3731C84.9888 35.6543 84.9288 35.9639 84.9288 36.2985V39.6724H84.1155V33.3409H84.8651Z" fill="#6D6E71"/>
<path d="M88.5525 37.5796C88.635 37.8786 88.7661 38.1455 88.946 38.384C89.1259 38.6224 89.3546 38.8182 89.6319 38.9712C89.9055 39.1278 90.239 39.2061 90.6251 39.2061C91.221 39.2061 91.6857 39.0602 92.0193 38.7648C92.3566 38.4694 92.5889 38.0779 92.7164 37.5868H93.5296C93.3572 38.3057 93.0424 38.8645 92.5814 39.2559C92.1205 39.6474 91.4683 39.8432 90.6251 39.8432C90.1004 39.8432 89.6431 39.7542 89.2609 39.5798C88.8786 39.4054 88.5638 39.1634 88.3239 38.8573C88.084 38.5513 87.9041 38.1954 87.788 37.7896C87.6718 37.3839 87.6118 36.9568 87.6118 36.5084C87.6118 36.092 87.6718 35.6827 87.788 35.2805C87.9041 34.8783 88.084 34.5224 88.3239 34.2057C88.5638 33.8925 88.8786 33.6362 89.2609 33.444C89.6431 33.2519 90.0966 33.1558 90.6251 33.1558C91.161 33.1558 91.6145 33.259 91.993 33.4618C92.3716 33.6683 92.6789 33.9352 92.9187 34.2662C93.1549 34.5972 93.3273 34.978 93.4284 35.4086C93.5334 35.8393 93.5746 36.2735 93.5559 36.7148H88.4251C88.4326 36.9924 88.4738 37.2807 88.5525 37.5796ZM92.5852 35.2164C92.4877 34.946 92.3453 34.7075 92.1654 34.4975C91.9855 34.2875 91.7644 34.1203 91.5058 33.9957C91.2472 33.8676 90.9549 33.8071 90.6288 33.8071C90.2915 33.8071 89.9954 33.8711 89.7368 33.9957C89.4782 34.1238 89.2609 34.2911 89.0772 34.4975C88.8973 34.7075 88.7512 34.946 88.6425 35.22C88.5338 35.494 88.4626 35.7752 88.4288 36.0599H92.7426C92.7388 35.7681 92.6826 35.4869 92.5852 35.2164Z" fill="#6D6E71"/>
<path d="M95.4074 33.3409V34.4086H95.4448C95.6585 34.0172 95.9433 33.7075 96.2919 33.4904C96.6404 33.2698 97.0864 33.1594 97.6298 33.1594C98.0683 33.1594 98.4656 33.2626 98.8254 33.4655C99.1814 33.6719 99.4213 33.9816 99.5412 34.398C99.7399 33.9816 100.032 33.6719 100.418 33.4655C100.804 33.2626 101.22 33.1594 101.659 33.1594C103.132 33.1594 103.87 33.8997 103.87 35.3803V39.676H103.057V35.4123C103.057 34.8891 102.941 34.4905 102.708 34.2165C102.476 33.9424 102.067 33.8072 101.483 33.8072C101.13 33.8072 100.838 33.8712 100.606 33.9958C100.373 34.1239 100.186 34.2912 100.051 34.5047C99.9123 34.7183 99.8148 34.9603 99.7624 35.2343C99.7061 35.5084 99.6762 35.7931 99.6762 36.0885V39.6724H98.8629V35.3767C98.8629 35.1632 98.8404 34.9603 98.7917 34.7681C98.743 34.5759 98.668 34.4086 98.5593 34.2663C98.4506 34.1239 98.3082 34.01 98.1283 33.9282C97.9484 33.8463 97.7273 33.8072 97.4687 33.8072C97.1239 33.8072 96.824 33.8677 96.5692 33.9851C96.3143 34.1026 96.1082 34.2663 95.9508 34.4763C95.7896 34.6862 95.6735 34.9318 95.5947 35.213C95.516 35.4941 95.4786 35.8038 95.4786 36.1383V39.6724H94.6653V33.3409H95.4074Z" fill="#6D6E71"/>
<path d="M106.246 30.9102V32.1487H105.433V30.9102H106.246ZM106.246 33.341V39.6725H105.433V33.341H106.246Z" fill="#6D6E71"/>
<path d="M112.464 39.6687V38.5262H112.438C112.225 38.9533 111.91 39.2772 111.501 39.5014C111.093 39.7256 110.635 39.8395 110.137 39.8395C109.714 39.8395 109.354 39.7825 109.058 39.6758C108.762 39.5654 108.518 39.4088 108.334 39.2024C108.147 38.9996 108.012 38.7469 107.926 38.455C107.84 38.1596 107.798 37.8251 107.798 37.4478V33.3407H108.612V37.4621C108.63 38.0351 108.769 38.4693 109.031 38.7611C109.294 39.0565 109.747 39.2024 110.396 39.2024C110.748 39.2024 111.052 39.1312 111.299 38.9889C111.55 38.8465 111.756 38.6543 111.917 38.4194C112.082 38.181 112.202 37.9105 112.281 37.6044C112.359 37.2983 112.397 36.9851 112.397 36.6648V33.3407H113.21V39.6722H112.464V39.6687Z" fill="#6D6E71"/>
<path d="M115.5 33.3409V34.4086H115.538C115.751 34.0172 116.036 33.7075 116.385 33.4904C116.733 33.2698 117.179 33.1594 117.723 33.1594C118.161 33.1594 118.558 33.2626 118.918 33.4655C119.274 33.6719 119.514 33.9816 119.634 34.398C119.833 33.9816 120.125 33.6719 120.511 33.4655C120.897 33.2626 121.313 33.1594 121.751 33.1594C123.224 33.1594 123.959 33.8997 123.959 35.3803V39.676H123.146V35.4123C123.146 34.8891 123.029 34.4905 122.797 34.2165C122.565 33.9424 122.156 33.8072 121.572 33.8072C121.219 33.8072 120.927 33.8712 120.691 33.9958C120.458 34.1239 120.275 34.2912 120.136 34.5047C119.997 34.7183 119.9 34.9603 119.844 35.2343C119.788 35.5084 119.761 35.7931 119.761 36.0885V39.6724H118.948V35.3767C118.948 35.1632 118.926 34.9603 118.877 34.7681C118.828 34.5759 118.753 34.4086 118.645 34.2663C118.536 34.1239 118.393 34.01 118.21 33.9282C118.03 33.8463 117.809 33.8072 117.55 33.8072C117.205 33.8072 116.906 33.8677 116.654 33.9851C116.4 34.1026 116.193 34.2663 116.032 34.4763C115.871 34.6862 115.755 34.9318 115.676 35.213C115.598 35.4941 115.56 35.8038 115.56 36.1383V39.6724H114.747V33.3409H115.5Z" fill="#6D6E71"/>
</g>
<defs>
<clipPath id="clip0_156_539">
<rect width="124" height="42" fill="white"/>
</clipPath>
</defs>
</svg>
