<svg width="105" height="42" viewBox="0 0 105 42" fill="none" xmlns="http://www.w3.org/2000/svg">
<g clip-path="url(#clip0_156_470)">
<path d="M11.77 4.76439C11.77 5.50307 11.2817 5.67842 10.3425 5.67842C9.82275 5.67842 9.57862 5.69102 9.52875 5.32772C9.49068 4.84869 9.48017 4.36787 9.49725 3.88764C9.48465 3.58104 9.48465 3.63092 10.3488 3.63092C10.9935 3.63092 10.9436 3.63722 11.0838 4.20054H11.3342C11.3216 3.99369 11.3279 2.81087 11.3342 2.71689H11.0932C11.0061 3.22404 10.8623 3.31382 10.2113 3.31382C9.49778 3.31382 9.49777 3.40149 9.49777 3.01352C9.49777 2.57514 9.50408 2.02442 9.50408 1.58604C9.50408 1.28574 9.7419 1.28574 10.2118 1.28574C11.0318 1.28574 11.4765 1.26684 11.5075 2.14989H11.7831C11.7705 1.94934 11.7894 1.12929 11.802 1.06682C11.346 1.00157 10.8842 0.986954 10.4249 1.02324C10.2496 1.01064 9.01635 1.07574 8.10862 1.03584C8.24617 0.560192 8.34645 0.234692 8.37112 0.177992C8.17057 0.177992 6.98145 0.203192 6.84337 0.171692V0.438392C7.04102 0.42816 7.23778 0.47132 7.413 0.563342C7.728 0.807467 7.308 2.09109 7.0455 3.15527C6.80767 4.11339 6.63863 4.65152 6.53835 4.93344C6.46327 4.71452 5.16705 0.369617 5.12085 0.175367C5.06467 0.175367 3.6813 0.200567 3.54375 0.169067V0.438392C3.70824 0.421418 3.87318 0.465927 4.0068 0.563342C4.21942 0.757592 3.6918 2.14727 3.318 3.14897C2.9736 4.08819 2.77357 4.67042 2.667 4.94132C2.59192 4.72029 1.6527 0.369617 1.60912 0.175367C1.42118 0.175367 0.15645 0.200567 0 0.169067V0.438392C0.162056 0.442069 0.320084 0.489604 0.457275 0.575942C0.6888 0.741317 1.01325 2.15882 1.25212 3.16157C1.53405 4.33232 1.91572 6.01652 1.94722 6.16037C2.18703 6.14667 2.42747 6.14878 2.667 6.16667C2.667 6.16667 4.20735 1.92834 4.41997 1.35242C4.57012 1.85957 5.89733 6.01652 5.93512 6.16037C6.1709 6.14665 6.40733 6.14875 6.64282 6.16667C6.64282 6.16667 7.55055 2.97992 8.06032 1.25844C8.23115 1.26195 8.39945 1.30036 8.55487 1.37132C8.72392 1.49627 8.68612 2.67332 8.68612 3.50597C8.71392 4.33754 8.68462 5.17005 8.59845 5.99762C9.23195 5.95062 9.86807 5.95062 10.5016 5.99762C11.0142 6.04058 11.5305 5.99836 12.0293 5.87267C12.0182 5.50957 12.0257 5.14614 12.0519 4.78382H11.77V4.76439Z" fill="#D15E14"/>
<path d="M15.3452 4.72698C15.3137 5.44045 14.8507 5.6599 14.1682 5.6599C13.6484 5.6599 13.5298 5.6725 13.5172 5.3974C13.492 4.90285 13.5046 4.30173 13.5046 3.48168C13.5046 2.51778 13.4857 1.98543 13.5298 1.0273C13.3723 1.0462 12.265 1.0462 12.1338 1.021V1.23993C12.273 1.24692 12.4083 1.28783 12.5281 1.3591C12.6971 1.48405 12.6656 2.6611 12.6656 3.49375C12.6656 4.25763 12.6719 5.13385 12.5968 5.9917C13.243 5.91023 13.8964 5.90388 14.5441 5.9728C14.8822 6.01117 15.2245 5.98354 15.5521 5.89143C15.5395 5.74128 15.5956 4.90233 15.6208 4.73328H15.3452V4.72698ZM18.7194 4.72698C18.6879 5.44045 18.2248 5.6599 17.5423 5.6599C17.0226 5.6599 16.9039 5.6725 16.8913 5.3974C16.8661 4.90285 16.8787 4.30173 16.8787 3.48168C16.8787 2.51778 16.8598 1.98543 16.9039 1.0273C16.7464 1.0462 15.6392 1.0462 15.508 1.021V1.23993C15.6471 1.24692 15.7825 1.28783 15.9022 1.3591C16.0713 1.48405 16.0398 2.6611 16.0398 3.49375C16.0398 4.25763 16.0461 5.13385 15.971 5.9917C16.6172 5.91023 17.2706 5.90388 17.9182 5.9728C18.2563 6.01117 18.5987 5.98354 18.9262 5.89143C18.9136 5.74128 18.9698 4.90233 18.995 4.73328H18.7194V4.72698ZM22.1986 1.00788V1.2268C22.3902 1.23388 22.5772 1.28797 22.743 1.3843C23.0123 1.59693 22.9871 2.10408 22.9871 3.48168C22.9871 4.29543 22.9808 4.28913 22.9808 4.78368C22.7992 4.54585 20.7832 1.61583 20.3763 1.021C20.2324 1.021 19.0239 1.0399 18.88 1.0147V1.23363C18.9563 1.22488 19.0336 1.23325 19.1063 1.25813C19.1789 1.28302 19.2451 1.32379 19.3 1.37748C19.4439 1.50873 19.4003 2.38548 19.4003 3.47485C19.4003 4.6204 19.3378 5.83735 19.3063 5.93553C19.4638 5.92923 20.3642 5.92293 20.496 5.94813V5.72238C20.3157 5.72463 20.1375 5.68377 19.9762 5.6032C19.7321 5.42785 19.7447 4.84563 19.7447 3.46855C19.7447 2.6548 19.7384 1.84105 19.7573 1.6216C20.0639 2.02848 22.4621 5.4016 22.7435 5.935C22.9435 5.91531 23.1451 5.91742 23.3446 5.9413C23.3383 4.9711 23.332 4.56423 23.332 3.4738C23.332 2.32825 23.3882 1.1113 23.4197 1.01313C23.2622 1.01943 22.324 1.03203 22.1991 1.00683M27.3898 4.76425C27.3898 5.50293 26.9015 5.67828 25.9623 5.67828C25.4488 5.67828 25.1984 5.69088 25.1485 5.32758C25.1118 4.84849 25.0994 4.36785 25.1113 3.8875C25.0987 3.5809 25.0987 3.63078 25.9628 3.63078C26.6075 3.63078 26.5576 3.63708 26.6978 4.2004H26.9482C26.9356 3.99355 26.9419 2.81073 26.9482 2.71675H26.7073C26.6196 3.2239 26.4757 3.31158 25.8247 3.31158C25.1113 3.31158 25.1113 3.39925 25.1113 3.01128C25.1113 2.5729 25.1176 2.02218 25.1176 1.5838C25.1176 1.2835 25.3554 1.2835 25.8253 1.2835C26.6516 1.2835 27.09 1.2646 27.1273 2.14765H27.3966C27.384 1.9471 27.4029 1.12705 27.4155 1.06458C26.9595 0.999327 26.4976 0.984713 26.0384 1.021C25.8568 1.0084 24.6209 1.08348 23.7158 1.0273V1.25253C23.8707 1.24651 24.0237 1.2881 24.1542 1.3717C24.3232 1.49665 24.2854 2.6737 24.2854 3.50635C24.3132 4.33793 24.2839 5.17043 24.1978 5.998C24.8313 5.95101 25.4674 5.95101 26.1009 5.998C26.6135 6.04097 27.1298 5.99875 27.6286 5.87305C27.6183 5.50974 27.6267 5.14613 27.6538 4.78368H27.3913L27.3898 4.76425Z" fill="#D15E14"/>
<path d="M32.981 2.56049C32.4486 2.37884 31.5913 2.25389 31.5913 1.41494C31.5913 1.03326 31.8795 0.344463 32.9873 0.344463C33.6824 0.344463 34.2016 0.545013 34.1139 1.45904H34.4331C34.4915 1.0428 34.5923 0.633621 34.734 0.237888C34.1789 0.0863322 33.6067 0.0064085 33.0314 6.31791e-05C32.6274 -0.0281566 32.2232 0.0514734 31.8601 0.230803C31.497 0.410132 31.1881 0.682719 30.965 1.02066C30.6071 0.942865 30.2419 0.90292 29.8756 0.901488C28.8676 0.901488 28.0098 1.45851 28.0098 2.38514C28.0098 3.21779 28.8172 3.54959 29.1616 3.66876C29.6499 3.83781 30.5891 3.95069 30.5891 4.80801C30.5891 5.16501 30.2258 5.75301 29.3181 5.75301C28.7484 5.75301 28.2975 5.46479 28.4355 4.71351H28.1536C28.0664 5.06102 27.9613 5.40377 27.8386 5.74041C28.284 5.94693 28.7689 6.0544 29.2598 6.05541C29.7164 6.06584 30.1676 5.95575 30.5681 5.73621C31.0875 6.05679 31.6799 6.23998 32.2896 6.26856C33.5102 6.26856 34.7502 5.69894 34.7502 4.35914C34.7502 3.23826 33.8677 2.86289 32.9784 2.56259M32.3526 5.89949C32.2051 5.9091 32.0573 5.88691 31.9192 5.83444C31.781 5.78196 31.6558 5.70042 31.5519 5.59533C31.448 5.49025 31.3679 5.36407 31.317 5.22533C31.2661 5.0866 31.2456 4.93855 31.2569 4.79121C31.277 4.69023 31.2875 4.58757 31.2884 4.48461C31.2884 3.56429 30.5623 3.25769 29.8294 3.01461C29.391 2.86446 28.6839 2.76419 28.6839 2.06961C28.6839 1.75461 28.9217 1.18709 29.8357 1.18709C30.2804 1.18709 30.6558 1.28736 30.7686 1.68794C30.7686 1.72574 30.7623 1.76931 30.7623 1.80711C30.7629 1.90593 30.7734 2.00443 30.7938 2.10111C30.9629 2.89596 31.7913 3.23406 32.1588 3.36584C32.7537 3.56639 33.8913 3.71024 33.8913 4.74921C33.8976 5.18759 33.4593 5.90106 32.351 5.90106" fill="#D15E14"/>
<path d="M35.7982 0.162598C35.9344 0.162598 36.0676 0.202995 36.1809 0.278681C36.2941 0.354368 36.3824 0.461944 36.4346 0.587805C36.4867 0.713667 36.5003 0.852162 36.4738 0.985776C36.4472 1.11939 36.3816 1.24212 36.2852 1.33845C36.1889 1.43478 36.0662 1.50039 35.9326 1.52696C35.7989 1.55354 35.6605 1.5399 35.5346 1.48777C35.4087 1.43563 35.3012 1.34735 35.2255 1.23407C35.1498 1.1208 35.1094 0.987629 35.1094 0.851398C35.1109 0.669183 35.1839 0.49486 35.3128 0.36601C35.4416 0.237161 35.616 0.164106 35.7982 0.162598ZM35.7982 1.33965C35.8619 1.33944 35.925 1.32663 35.9838 1.30194C36.0426 1.27725 36.096 1.24118 36.1408 1.1958C36.1855 1.15042 36.2209 1.09663 36.2448 1.03752C36.2688 0.978414 36.2808 0.915159 36.2801 0.851398C36.2801 0.723577 36.2294 0.600991 36.139 0.510608C36.0486 0.420224 35.926 0.369448 35.7982 0.369448C35.6704 0.369448 35.5478 0.420224 35.4574 0.510608C35.367 0.600991 35.3162 0.723577 35.3162 0.851398C35.3156 0.915159 35.3276 0.978414 35.3515 1.03752C35.3755 1.09663 35.4108 1.15042 35.4556 1.1958C35.5004 1.24118 35.5537 1.27725 35.6125 1.30194C35.6713 1.32663 35.7344 1.33944 35.7982 1.33965ZM35.5289 0.477598H35.8171C36.0113 0.477598 36.1053 0.558973 36.1053 0.709123C36.1082 0.760533 36.0908 0.811022 36.0568 0.849713C36.0228 0.888403 35.975 0.912199 35.9237 0.915973L36.1053 1.22257H35.93L35.7546 0.922273H35.6921V1.22257H35.5294V0.477598H35.5289ZM35.6979 0.792598H35.8229C35.8979 0.792598 35.9483 0.779998 35.9483 0.698623C35.9483 0.617248 35.867 0.604648 35.8045 0.604648H35.6974L35.6979 0.792598ZM61.3447 8.60092C58.0606 4.96617 53.358 3.1488 47.2369 3.1488C41.3219 3.1488 36.5978 5.0983 33.0645 8.9973C29.7357 12.6688 28.0723 17.2888 28.0744 22.8573C28.0744 28.6113 29.5943 33.1748 32.634 36.5477C35.8757 40.1825 40.5582 41.9998 46.6814 41.9998C52.6339 41.9998 57.3976 40.0692 60.9725 36.208C64.3391 32.5355 66.0235 27.8966 66.0256 22.2913C66.0256 16.531 64.4662 11.9676 61.3473 8.60092H61.3447ZM41.3826 36.4784C36.7805 34.7617 33.8226 31.98 32.5091 28.1335C31.3978 24.8194 31.6143 21.1468 33.1585 17.1159C34.6138 13.3173 36.9997 10.5481 40.3163 8.8083C43.9213 6.9029 47.9271 6.77287 52.3336 8.41822C56.9305 10.1287 59.8619 12.9187 61.1279 16.7883C62.202 20.0961 61.9605 23.7792 60.4034 27.8374C59.1443 31.3733 56.6001 34.3055 53.277 36.0505C49.672 37.9433 45.7079 38.086 41.3847 36.4784H41.3826ZM60.2422 33.9127C57.7383 36.7298 54.2951 38.5399 50.5549 39.0052C51.8487 38.7116 53.0967 38.2441 54.2651 37.6156C58.0314 35.5968 60.7651 32.2847 62.4661 27.6794C64.2213 22.9194 64.4046 18.6746 63.0158 14.945C61.5409 10.9414 58.3655 7.99455 53.4896 6.10455C48.7489 4.26845 44.3643 4.39637 40.3358 6.48832C36.5316 8.48787 33.7748 11.8074 32.0654 16.447C30.3102 21.2137 30.1623 25.4711 31.6218 29.2192C33.1268 33.2442 36.3185 36.1998 41.1968 38.086C42.4249 38.568 43.6996 38.9219 45.0004 39.1423C40.3349 38.7163 36.7005 36.8912 34.0972 33.667C31.5352 30.4852 30.2542 26.3515 30.2542 21.266C30.2542 16.5935 31.7067 12.6254 34.6117 9.36165C37.7613 5.8088 42.0448 4.03132 47.4621 4.02922C53.221 4.02922 57.6286 5.8697 60.6848 9.55065C63.2958 12.7328 64.6013 16.8453 64.6013 21.8881C64.595 26.6359 63.1425 30.6434 60.2438 33.9106L60.2422 33.9127ZM88.8363 34.894L88.243 34.9759C85.6884 35.3344 85.4012 35.3344 85.3073 35.3344C85.0201 35.3344 84.5639 35.1769 82.7027 33.278C81.905 32.5243 81.1638 31.7129 80.4851 30.8504C79.5917 29.6869 78.5808 28.6185 77.4685 27.6621C76.4568 26.6809 74.5642 25.675 74.9826 23.996C75.3076 22.6945 76.8201 22.6504 77.9058 22.4173C79.4924 22.0777 80.9476 22.0273 82.3216 21.0088C82.8341 20.6583 83.251 20.1855 83.5346 19.6331C83.8181 19.0808 83.9593 18.4664 83.9454 17.8456C83.9515 17.1713 83.7906 16.506 83.4771 15.9089C82.7899 14.5633 81.8906 14.7266 80.6353 14.2174C79.7784 13.7722 78.7826 13.6754 77.8559 13.947C76.7939 14.1859 75.6572 13.9848 74.5831 14.1733C71.9723 14.6458 72.8968 17.5375 72.9031 19.5309C72.9094 21.0151 73.0406 22.4803 73.0406 23.9645C73.0406 25.4487 73.3777 26.8951 73.3094 28.3745C73.216 30.3238 72.9036 32.2548 72.9036 34.2104C72.9036 34.7197 72.5723 35.3234 71.0047 35.3234C69.5431 35.3234 69.3184 34.6756 69.3184 34.2923V12.2733C69.3184 11.4559 70.8409 11.3425 72.1854 11.3362C73.1308 11.1094 74.1008 11.0017 75.0729 11.0154C75.6771 10.9907 76.2815 11.0585 76.8653 11.2165C81.144 11.2102 84.1796 11.9772 85.8905 13.4992C86.451 14.001 86.8943 14.62 87.189 15.3122C87.4837 16.0045 87.6225 16.753 87.5957 17.5049C87.6125 18.1592 87.4929 18.8099 87.2445 19.4155C86.9961 20.0211 86.6244 20.5683 86.153 21.0224C85.0924 21.9494 83.8708 22.6741 82.5489 23.1607L78.6387 24.7882C78.6063 24.8073 78.5751 24.8284 78.5452 24.8512C78.5452 24.8575 78.5516 25.0775 79.3884 25.6939L80.85 26.7754L88.8363 34.894ZM82.7988 20.2102C83.2946 19.6478 83.5542 18.9156 83.5233 18.1664C83.5474 17.7305 83.4823 17.2943 83.3319 16.8844C83.1815 16.4746 82.949 16.0997 82.6487 15.7829C82.2287 15.3814 81.7274 15.0747 81.1787 14.8836C81.7907 15.2456 82.2922 15.7679 82.629 16.3941C82.9659 17.0203 83.1254 17.7266 83.0902 18.4368C83.0977 19.0835 82.9613 19.7237 82.6907 20.311C82.7216 20.2795 82.7657 20.248 82.7956 20.2102H82.7988ZM69.0701 11.7709C69.2957 11.3288 69.6538 10.9683 70.0943 10.7398C69.8499 10.7828 69.6126 10.8589 69.3887 10.966L69.3011 11.0101H69.2076C68.949 11.0008 68.6904 11.0284 68.4395 11.092V32.7997C68.912 32.8522 68.6768 32.542 68.6705 32.0012C68.6642 31.6111 68.7456 31.2216 68.764 30.8315C68.8076 29.97 68.7577 29.0896 68.764 28.228C68.7703 27.3665 68.8889 26.5365 68.8952 25.6813C68.9015 24.8386 68.8018 23.996 68.7955 23.1471C68.7829 21.581 69.0055 19.9777 68.8769 18.4872C68.8436 17.3775 68.8728 16.2667 68.9645 15.1603C68.9771 14.5187 68.5834 12.8335 68.7645 12.3935C68.8526 12.1794 68.9549 11.9714 69.0706 11.7709H69.0701ZM75.7596 26.725C78.0145 29.014 78.6891 29.8944 79.0015 30.3595C79.7755 31.3819 80.6274 32.3427 81.5498 33.2334C82.2034 33.9648 82.9111 34.646 83.6672 35.2709C83.7606 35.2583 83.8919 35.2457 84.0546 35.2268C81.5469 32.5948 79.0423 29.9598 76.5408 27.3219C76.4657 27.2589 76.147 27.02 75.7601 26.7244L75.7596 26.725ZM105.002 30.5296C105.002 30.6556 104.203 30.7181 102.598 30.7181H92.683C90.3656 30.7181 89.208 30.5148 89.2101 30.1081V12.4182C89.2243 11.9017 89.2745 11.3868 89.3603 10.8773C89.4978 9.9969 89.6474 9.56482 89.8223 9.56482H104.213C104.269 9.56482 104.363 9.7596 104.5 10.1423C104.621 10.8537 104.688 11.5733 104.7 12.2948C104.7 12.3893 104.12 12.4334 102.951 12.4334H98.9347C98.2228 12.4334 97.0798 12.509 95.518 12.6534C93.7193 12.8167 92.4205 13.0057 92.4205 13.2067C92.4205 13.905 91.8834 14.0746 92.1517 15.7031C92.2432 16.4417 92.2934 17.1849 92.3018 17.9291H96.3244C97.7734 17.9291 98.4979 18.0234 98.4979 18.2121C98.4979 19.8784 98.3729 20.9788 98.1167 20.9788L94.6192 21.2366C94.4089 21.2243 94.2021 21.1775 94.007 21.098C93.623 21.0194 93.2264 21.0258 92.8452 21.1169C92.3643 21.2219 92.3832 21.6199 92.3454 22.0619C92.2892 22.6594 92.2892 23.2568 92.2829 23.8543C92.2766 24.3761 92.2892 24.898 92.2892 25.4203C92.2366 25.9458 92.2662 26.4763 92.3769 26.9927C92.4704 27.2883 92.5706 27.8794 92.9827 27.8794H104.519C104.575 27.8794 104.669 28.0679 104.806 28.4391C104.923 29.1313 104.988 29.8314 105 30.5333L105.002 30.5296ZM93.5781 27.1276C95.0397 27.0763 96.503 27.1562 97.9503 27.3665C99.0926 27.5224 100.245 27.5875 101.398 27.5613C102.279 27.6064 103.162 27.5853 104.04 27.4983C104.096 27.429 104.165 27.3408 104.258 27.2216C101.229 27.1586 94.6082 27.0116 94.4517 27.0079C94.3703 27.0205 94.0144 27.0709 93.5771 27.1276H93.5781ZM95.7579 9.117C97.3187 9.23365 98.8847 9.2631 100.449 9.2052C101.648 9.22519 102.847 9.17698 104.04 9.06082C104.115 8.99152 104.209 8.89755 104.327 8.77785C100.211 8.80935 91.2109 8.87235 90.9983 8.87865C90.8859 8.89125 90.405 8.95425 89.8118 9.02302C91.7938 8.92887 93.7798 8.96043 95.7579 9.11752V9.117ZM93.0095 14.6295C93.0365 14.3174 92.9916 14.0033 92.8783 13.7113C92.8032 13.6987 92.7098 13.6735 92.5848 13.6483C92.5911 14.7109 92.61 17.0377 92.61 17.0881C92.6226 17.1133 92.6851 17.2387 92.7539 17.3899C92.6707 16.8729 92.7179 16.3432 92.8914 15.8491C93.0184 15.4557 93.0589 15.0395 93.0101 14.629L93.0095 14.6295ZM92.7097 26.7538C92.7224 26.7916 92.7623 26.9738 92.8095 27.1875C92.7701 26.4547 92.8354 25.72 93.0032 25.0056C93.1281 24.4401 93.1825 23.8614 93.1655 23.2825C93.2026 22.8419 93.185 22.3984 93.113 21.9622C93.0568 21.937 92.9817 21.8992 92.882 21.8572C92.8212 23.49 92.7629 25.1229 92.7071 26.7559L92.7097 26.7538ZM26.669 30.3343C26.6128 30.8423 26.4183 31.3252 26.1067 31.7303C25.7519 32.3045 25.3509 32.8489 24.9076 33.3578C24.2767 34.0252 23.5523 34.5976 22.7572 35.0572C21.0829 36.0884 19.1997 36.7328 17.2447 36.9436C13.3161 37.3148 8.65043 35.6232 5.64218 32.7367C2.98778 30.19 1.93831 27.429 2.01338 23.197C2.10683 18.1785 3.30646 14.8962 5.89838 12.5505C8.56686 10.0707 12.0563 8.66231 15.6986 8.59515C17.8591 8.57057 19.9976 9.03035 21.9571 9.94072C23.1341 10.4544 24.1992 11.1935 25.0924 12.1163L25.1801 12.1856C25.6673 12.7075 26.6606 13.7013 25.9109 15.2416C25.5084 16.0343 25.0599 16.8028 24.5679 17.5432C24.4076 17.7139 24.1864 17.8143 23.9525 17.8225C23.7186 17.8308 23.4908 17.7462 23.3189 17.5873C22.9567 17.1532 23.2628 16.0276 23.2003 15.5309C23.0501 14.3045 21.42 12.8833 20.2708 12.3809C19.7143 12.1201 19.1265 11.932 18.522 11.8213C18.3324 11.7801 18.1404 11.7506 17.9471 11.7331C17.5271 11.6806 17.1287 11.6512 16.7354 11.6281C14.9268 11.7666 13.1843 12.3687 11.676 13.3763C8.80898 15.4831 7.19146 17.6839 6.72894 20.1052C6.04171 23.6899 8.45303 28.6202 9.31456 30.0162C8.71493 29.4878 8.17275 28.8976 7.69703 28.2553C6.09789 26.2078 5.71726 23.9729 6.37298 20.552C7.03501 17.1122 8.41523 14.9051 10.8575 13.3768C12.3307 12.4622 13.9736 11.855 15.6875 11.5918C12.7019 11.5855 10.5473 12.4156 8.72341 14.2205C7.6379 15.3186 6.77963 16.62 6.19776 18.0502C5.61589 19.4804 5.32183 21.0114 5.33243 22.5554C5.26996 25.9826 6.37561 29.0129 8.44306 31.1014C10.9415 33.6166 14.7326 34.8745 17.8868 34.233C18.4443 34.1182 18.99 33.9519 19.5169 33.7363C20.9617 33.1789 22.2757 32.329 23.3767 31.24L23.5515 31.0641C23.9415 30.693 24.2988 30.289 24.6194 29.8566L24.7506 29.6429C24.8819 29.4229 24.9128 29.3851 25.0441 29.3725C25.2868 29.3691 25.5287 29.401 25.7623 29.467L25.9723 29.5111L26.1224 29.5489C26.2829 29.5784 26.426 29.6684 26.522 29.8004C26.615 29.9633 26.6646 30.1473 26.6658 30.3349L26.669 30.3343Z" fill="#D15E14"/>
</g>
<defs>
<clipPath id="clip0_156_470">
<rect width="105" height="42" fill="white"/>
</clipPath>
</defs>
</svg>
